<?xml version="1.0" encoding="utf-8"?>
<svg xmlns="http://www.w3.org/2000/svg">
  <defs>
    <symbol id="email" viewBox="0 0 70 70">
      <path d="M55.4166 11.6667H14.5833C12.2627 11.6667 10.0371 12.5886 8.39613 14.2296C6.75519 15.8705 5.83331 18.0961 5.83331 20.4167V49.5834C5.83331 51.9041 6.75519 54.1297 8.39613 55.7706C10.0371 57.4115 12.2627 58.3334 14.5833 58.3334H55.4166C57.7373 58.3334 59.9629 57.4115 61.6038 55.7706C63.2448 54.1297 64.1666 51.9041 64.1666 49.5834V20.4167C64.1666 18.0961 63.2448 15.8705 61.6038 14.2296C59.9629 12.5886 57.7373 11.6667 55.4166 11.6667ZM53.4625 17.5001L35 31.3542L16.5375 17.5001H53.4625ZM55.4166 52.5001H14.5833C13.8098 52.5001 13.0679 52.1928 12.5209 51.6458C11.9739 51.0988 11.6666 50.357 11.6666 49.5834V21.1459L33.25 37.3334C33.7548 37.7121 34.3689 37.9167 35 37.9167C35.6311 37.9167 36.2451 37.7121 36.75 37.3334L58.3333 21.1459V49.5834C58.3333 50.357 58.026 51.0988 57.479 51.6458C56.9321 52.1928 56.1902 52.5001 55.4166 52.5001Z" fill="#DAD7CD"/>
    </symbol>

    <symbol id="helpline" viewBox="0 0 70 70">
      <path d="M50.75 64.1667C38.8421 64.1512 27.4263 59.414 19.0062 50.9938C10.586 42.5737 5.84877 31.1579 5.83334 19.25C5.83334 15.6917 7.24687 12.2791 9.76299 9.76299C12.2791 7.24688 15.6917 5.83334 19.25 5.83334C20.0035 5.8276 20.7557 5.89599 21.4958 6.03751C22.2113 6.14338 22.9147 6.31923 23.5958 6.56251C24.0749 6.73059 24.5018 7.02081 24.8343 7.40447C25.1668 7.78812 25.3934 8.25192 25.4917 8.75001L29.4875 26.25C29.5952 26.725 29.5822 27.2195 29.4498 27.6882C29.3173 28.1569 29.0696 28.585 28.7292 28.9333C28.35 29.3417 28.3208 29.3708 24.7333 31.2375C27.6062 37.54 32.6468 42.6013 38.9375 45.5C40.8333 41.8833 40.8625 41.8542 41.2708 41.475C41.6192 41.1346 42.0473 40.8869 42.516 40.7544C42.9847 40.6219 43.4791 40.609 43.9542 40.7167L61.4542 44.7125C61.9363 44.8244 62.382 45.0571 62.7494 45.3888C63.1168 45.7204 63.3937 46.1401 63.5542 46.6083C63.8003 47.3006 63.9858 48.013 64.1083 48.7375C64.2257 49.4705 64.2842 50.2118 64.2833 50.9542C64.2295 54.4973 62.7763 57.8752 60.2408 60.3507C57.7052 62.8261 54.2934 64.1979 50.75 64.1667ZM19.25 11.6667C17.2411 11.6744 15.3168 12.4758 13.8963 13.8963C12.4758 15.3168 11.6744 17.2411 11.6667 19.25C11.6744 29.6132 15.7946 39.5497 23.1224 46.8776C30.4503 54.2054 40.3868 58.3256 50.75 58.3333C52.7589 58.3257 54.6832 57.5242 56.1037 56.1037C57.5242 54.6833 58.3256 52.7589 58.3333 50.75V49.7875L44.8 46.6667L43.9542 48.2708C42.6417 50.8083 41.6792 52.6458 39.2292 51.6542C34.3959 49.9242 30.0087 47.1393 26.3863 43.5017C22.7639 39.8642 19.9973 35.4654 18.2875 30.625C17.2375 28.35 19.2208 27.3 21.7292 25.9875L23.3333 25.2L20.2125 11.6667H19.25Z" fill="#DAD7CD"/>
    </symbol>
  </defs>
</svg>