<?xml version="1.0" encoding="utf-8"?>
<svg xmlns="http://www.w3.org/2000/svg">
  <defs>
    <symbol id="feature-1" viewBox="0 0 24 24">
      <path d="M20 11.83C19.7348 11.83 19.4804 11.9354 19.2929 12.1229C19.1054 12.3104 19 12.5648 19 12.83V18.4C19 18.5591 18.9368 18.7117 18.8243 18.8243C18.7117 18.9368 18.5591 19 18.4 19H5.6C5.44087 19 5.28826 18.9368 5.17574 18.8243C5.06321 18.7117 5 18.5591 5 18.4V5.6C5 5.44087 5.06321 5.28826 5.17574 5.17574C5.28826 5.06321 5.44087 5 5.6 5H15.17C15.4352 5 15.6896 4.89464 15.8771 4.70711C16.0646 4.51957 16.17 4.26522 16.17 4C16.17 3.73478 16.0646 3.48043 15.8771 3.29289C15.6896 3.10536 15.4352 3 15.17 3H5.6C4.91125 3.00263 4.25146 3.27741 3.76443 3.76443C3.27741 4.25146 3.00263 4.91125 3 5.6V18.4C3.00263 19.0888 3.27741 19.7485 3.76443 20.2356C4.25146 20.7226 4.91125 20.9974 5.6 21H18.4C19.0888 20.9974 19.7485 20.7226 20.2356 20.2356C20.7226 19.7485 20.9974 19.0888 21 18.4V12.83C21 12.5648 20.8946 12.3104 20.7071 12.1229C20.5196 11.9354 20.2652 11.83 20 11.83Z" fill="#DAD7CD"/>
      <path d="M10.72 11.0001C10.5323 10.8313 10.2878 10.7397 10.0354 10.7437C9.78308 10.7477 9.54158 10.847 9.35936 11.0216C9.17715 11.1962 9.0677 11.4333 9.05297 11.6852C9.03825 11.9372 9.11933 12.1854 9.27996 12.3801L11.5 14.7101C11.5929 14.8076 11.7046 14.8853 11.8283 14.9386C11.952 14.9918 12.0853 15.0195 12.22 15.0201C12.3539 15.0208 12.4867 14.9947 12.6104 14.9432C12.7341 14.8916 12.8462 14.8158 12.94 14.7201L19.72 7.72006C19.8119 7.62551 19.8843 7.51378 19.933 7.39124C19.9818 7.26871 20.0059 7.13778 20.004 7.00592C20.0022 6.87406 19.9744 6.74386 19.9222 6.62275C19.87 6.50163 19.7945 6.39199 19.7 6.30006C19.6054 6.20814 19.4937 6.13573 19.3711 6.08699C19.2486 6.03824 19.1177 6.01411 18.9858 6.01597C18.854 6.01783 18.7238 6.04564 18.6026 6.09781C18.4815 6.14999 18.3719 6.22551 18.28 6.32006L12.23 12.5801L10.72 11.0001Z" fill="#DAD7CD"/>
    </symbol>

    <symbol id="feature-2" viewBox="0 0 24 24">
      <path d="M12 7C10.9506 7 9.92778 7.33019 9.07645 7.94379C8.22512 8.55739 7.58844 9.4233 7.25658 10.4189C6.92473 11.4144 6.91453 12.4892 7.22743 13.4908C7.54033 14.4925 8.16047 15.3704 9 16V20C9 20.5304 9.21071 21.0391 9.58579 21.4142C9.96086 21.7893 10.4696 22 11 22H13C13.5304 22 14.0391 21.7893 14.4142 21.4142C14.7893 21.0391 15 20.5304 15 20V16C15.8395 15.3704 16.4597 14.4925 16.7726 13.4908C17.0855 12.4892 17.0753 11.4144 16.7434 10.4189C16.4116 9.4233 15.7749 8.55739 14.9236 7.94379C14.0722 7.33019 13.0494 7 12 7ZM13.5 14.59C13.3474 14.6781 13.2208 14.805 13.133 14.9577C13.0452 15.1105 12.9993 15.2838 13 15.46V20H11V15.46C11.0007 15.2838 10.9548 15.1105 10.867 14.9577C10.7792 14.805 10.6526 14.6781 10.5 14.59C10.0451 14.3274 9.66717 13.9499 9.40394 13.4954C9.14071 13.0409 9.00142 12.5252 9 12C9 11.2044 9.31607 10.4413 9.87868 9.87868C10.4413 9.31607 11.2044 9 12 9C12.7956 9 13.5587 9.31607 14.1213 9.87868C14.6839 10.4413 15 11.2044 15 12C14.9986 12.5252 14.8593 13.0409 14.5961 13.4954C14.3328 13.9499 13.9549 14.3274 13.5 14.59ZM12 6C12.2652 6 12.5196 5.89464 12.7071 5.70711C12.8946 5.51957 13 5.26522 13 5V3C13 2.73478 12.8946 2.48043 12.7071 2.29289C12.5196 2.10536 12.2652 2 12 2C11.7348 2 11.4804 2.10536 11.2929 2.29289C11.1054 2.48043 11 2.73478 11 3V5C11 5.26522 11.1054 5.51957 11.2929 5.70711C11.4804 5.89464 11.7348 6 12 6ZM21 11H19C18.7348 11 18.4804 11.1054 18.2929 11.2929C18.1054 11.4804 18 11.7348 18 12C18 12.2652 18.1054 12.5196 18.2929 12.7071C18.4804 12.8946 18.7348 13 19 13H21C21.2652 13 21.5196 12.8946 21.7071 12.7071C21.8946 12.5196 22 12.2652 22 12C22 11.7348 21.8946 11.4804 21.7071 11.2929C21.5196 11.1054 21.2652 11 21 11ZM5 11H3C2.73478 11 2.48043 11.1054 2.29289 11.2929C2.10536 11.4804 2 11.7348 2 12C2 12.2652 2.10536 12.5196 2.29289 12.7071C2.48043 12.8946 2.73478 13 3 13H5C5.26522 13 5.51957 12.8946 5.70711 12.7071C5.89464 12.5196 6 12.2652 6 12C6 11.7348 5.89464 11.4804 5.70711 11.2929C5.51957 11.1054 5.26522 11 5 11ZM7.66 6.42L6.22 5C6.02507 4.81567 5.76489 4.71634 5.49672 4.72384C5.22854 4.73134 4.97433 4.84507 4.79 5.04C4.60567 5.23493 4.50634 5.49511 4.51384 5.76328C4.52134 6.03146 4.63507 6.28567 4.83 6.47L6.27 7.86C6.36663 7.95331 6.48108 8.02619 6.6065 8.0743C6.73192 8.12241 6.86575 8.14475 7 8.14C7.1347 8.13949 7.26792 8.11176 7.39164 8.05849C7.51537 8.00522 7.62705 7.9275 7.72 7.83C7.8985 7.63482 7.99241 7.37687 7.98116 7.11261C7.96992 6.84835 7.85444 6.59931 7.66 6.42ZM19.19 5.05C19.0026 4.86375 18.7492 4.75921 18.485 4.75921C18.2208 4.75921 17.9674 4.86375 17.78 5.05L16.34 6.42C16.1537 6.60736 16.0492 6.86081 16.0492 7.125C16.0492 7.38919 16.1537 7.64264 16.34 7.83C16.4329 7.9275 16.5446 8.00522 16.6684 8.05849C16.7921 8.11176 16.9253 8.13949 17.06 8.14C17.3175 8.13898 17.5646 8.03868 17.75 7.86L19.19 6.47C19.2837 6.37704 19.3581 6.26644 19.4089 6.14458C19.4597 6.02272 19.4858 5.89201 19.4858 5.76C19.4858 5.62799 19.4597 5.49728 19.4089 5.37542C19.3581 5.25356 19.2837 5.14296 19.19 5.05Z" fill="#DAD7CD"/>
    </symbol>

    <symbol id="feature-3" viewBox="0 0 24 24">
      <path d="M19 20.75L16.69 11.75C17.5441 10.6874 18.0066 9.36329 18 8C18 6.4087 17.3679 4.88258 16.2427 3.75736C15.1175 2.63214 13.5913 2 12 2C10.4087 2 8.88262 2.63214 7.7574 3.75736C6.63218 4.88258 6.00004 6.4087 6.00004 8C5.9973 9.37381 6.47084 10.7061 7.34004 11.77L5.00004 20.75C4.95026 20.9419 4.95867 21.1443 5.02419 21.3315C5.08971 21.5186 5.20939 21.6821 5.36802 21.801C5.52664 21.92 5.71706 21.9891 5.91506 21.9996C6.11306 22.0101 6.30972 21.9615 6.48004 21.86L11.81 18.73L17.49 21.87C17.6435 21.9626 17.8209 22.0078 18 22C18.1553 22.005 18.3096 21.9737 18.4507 21.9086C18.5918 21.8435 18.7157 21.7465 18.8128 21.6252C18.9098 21.5039 18.9773 21.3616 19.0098 21.2097C19.0423 21.0578 19.039 20.9004 19 20.75ZM12 4C12.7912 4 13.5645 4.2346 14.2223 4.67412C14.8801 5.11365 15.3928 5.73836 15.6956 6.46927C15.9983 7.20017 16.0775 8.00444 15.9232 8.78036C15.7688 9.55629 15.3879 10.269 14.8285 10.8284C14.2691 11.3878 13.5563 11.7688 12.7804 11.9231C12.0045 12.0775 11.2002 11.9983 10.4693 11.6955C9.7384 11.3928 9.11369 10.8801 8.67416 10.2223C8.23463 9.56448 8.00004 8.79113 8.00004 8C8.00004 6.93913 8.42146 5.92172 9.17161 5.17157C9.92176 4.42143 10.9392 4 12 4ZM12.31 16.71C12.158 16.6222 11.9856 16.576 11.81 16.576C11.6345 16.576 11.4621 16.6222 11.31 16.71L7.56004 18.91L9.00004 13.21C9.90065 13.7276 10.9213 14 11.96 14C12.9988 14 14.0194 13.7276 14.92 13.21L16.45 19L12.31 16.71Z" fill="#DAD7CD"/>
    </symbol>
  </defs>
</svg>