<?xml version="1.0" encoding="utf-8"?>
<svg xmlns="http://www.w3.org/2000/svg">
  <defs>
    <symbol id="website-logo" viewBox="0 0 517 490">
      <path fill="#e0ded5" d="
        M 254.94 80.26
        Q 254.77 80.20 254.60 80.13
        Q 254.49 80.08 254.40 79.99
        Q 250.15 75.39 250.17 69.91
        Q 250.27 44.16 250.21 14.98
        Q 250.21 13.22 250.74 11.50
        C 251.74 8.30 252.09 5.79 255.22 3.75
        Q 259.75 0.78 264.81 1.08
        C 266.63 1.19 267.67 2.15 269.35 2.61
        C 272.60 3.51 274.88 7.05 274.88 10.52
        Q 274.93 41.49 274.88 71.02
        Q 274.87 75.84 272.12 79.35
        C 270.69 81.18 269.02 81.99 267.34 83.40
        Q 266.78 83.86 266.07 83.77
        Q 265.32 83.67 264.74 84.16
        Q 264.30 84.53 263.73 84.56
        Q 258.89 84.82 255.57 80.73
        Q 255.31 80.41 254.94 80.26
        Z"
      />
      <path fill="#e0ded5" d="
        M 335.19 124.73
        L 334.77 124.74
        Q 334.31 124.76 334.09 124.35
        Q 333.67 123.54 332.72 123.37
        A 1.34 1.33 80.3 0 1 331.79 122.71
        Q 329.44 118.65 329.19 115.82
        Q 329.02 113.81 329.11 111.56
        Q 329.19 109.41 329.89 107.48
        Q 331.91 101.92 335.68 97.22
        Q 348.47 81.29 360.04 65.01
        C 360.78 63.96 361.72 63.24 362.41 62.15
        Q 363.91 59.77 365.77 57.46
        C 368.29 54.33 370.36 50.88 373.39 48.03
        Q 375.05 46.47 377.79 45.32
        Q 378.28 45.10 378.82 45.16
        Q 379.62 45.25 380.16 44.72
        A 1.00 0.95 -65.9 0 1 380.87 44.43
        L 383.57 44.48
        Q 384.11 44.49 384.56 44.77
        C 385.61 45.41 386.61 45.11 387.79 45.60
        Q 392.34 47.48 394.17 51.80
        C 395.26 54.36 394.78 57.31 394.77 60.08
        Q 394.76 61.57 393.98 63.16
        Q 391.34 68.53 387.29 72.94
        Q 385.56 74.82 384.09 76.85
        C 382.80 78.63 381.23 79.94 379.89 81.70
        Q 372.18 91.89 364.24 101.76
        Q 363.16 103.11 362.32 104.65
        C 361.55 106.05 360.15 106.83 359.30 108.22
        Q 357.85 110.60 355.87 112.42
        C 355.38 112.88 355.34 113.53 354.96 114.04
        Q 350.94 119.41 346.20 124.11
        C 343.94 126.36 339.96 125.98 337.02 125.74
        Q 336.37 125.68 335.99 125.12
        Q 335.70 124.71 335.19 124.73
        Z"
      />
      <path fill="#e0ded5" d="
        M 136.11 45.79
        Q 136.47 45.29 137.08 45.26
        C 139.54 45.13 142.39 44.65 144.63 46.12
        C 146.25 47.19 148.02 47.75 149.43 49.31
        C 151.05 51.12 152.24 52.79 154.03 54.77
        Q 155.64 56.57 157.08 58.58
        Q 158.91 61.15 163.32 66.14
        Q 164.64 67.64 165.74 69.12
        C 167.25 71.15 169.29 72.53 170.48 74.77
        C 171.30 76.31 172.58 77.26 173.56 78.67
        Q 176.62 83.01 178.20 84.81
        Q 185.66 93.35 192.58 102.23
        Q 193.55 103.49 194.14 104.91
        C 194.65 106.16 195.61 107.26 195.84 108.56
        C 196.74 113.66 196.41 120.82 192.01 124.31
        Q 191.57 124.65 191.02 124.68
        Q 190.05 124.73 189.26 125.36
        Q 188.78 125.74 188.18 125.75
        L 181.09 125.84
        Q 180.55 125.85 180.18 125.45
        C 179.25 124.43 178.10 124.07 177.17 122.95
        Q 172.18 116.97 167.65 110.81
        C 166.56 109.33 164.96 108.21 163.80 106.68
        Q 158.46 99.68 153.25 93.12
        Q 152.43 92.08 151.64 90.93
        C 150.61 89.43 149.12 88.29 148.00 86.81
        Q 145.15 83.06 142.45 79.94
        Q 137.85 74.63 133.44 69.32
        Q 130.85 66.20 129.39 62.43
        Q 127.82 58.38 128.70 54.74
        Q 129.65 50.80 132.19 47.89
        Q 133.41 46.50 135.44 46.20
        Q 135.87 46.14 136.11 45.79
        Z"
      />
      <path fill="#e0ded5" d="
        M 317.50 223.06
        Q 317.46 223.32 317.33 223.54
        C 312.71 231.67 306.44 238.19 298.90 243.87
        Q 296.40 245.75 293.83 247.12
        C 291.05 248.60 288.45 250.11 285.42 251.09
        Q 281.40 252.39 277.25 253.58
        C 276.36 253.84 275.43 253.54 274.68 254.13
        Q 274.28 254.44 273.77 254.48
        Q 271.33 254.67 268.74 255.27
        Q 263.89 256.40 257.42 255.26
        Q 255.43 254.92 253.50 254.87
        Q 251.55 254.82 249.81 254.13
        C 248.54 253.63 247.51 253.98 246.31 253.56
        Q 243.52 252.61 240.86 251.71
        Q 240.24 251.50 239.78 251.12
        Q 239.42 250.83 238.90 250.82
        Q 238.44 250.82 238.01 250.65
        Q 228.31 246.81 218.51 237.21
        C 217.37 236.10 216.67 234.85 215.60 233.81
        Q 210.32 228.73 206.99 221.57
        Q 203.59 214.25 202.26 206.57
        Q 202.03 205.22 201.62 204.01
        Q 201.18 202.76 201.19 201.47
        Q 201.23 195.54 201.31 189.40
        Q 201.34 187.18 201.81 185.24
        C 202.31 183.13 202.27 181.11 202.90 178.99
        Q 205.13 171.49 208.38 166.31
        C 210.31 163.23 212.24 159.94 214.60 157.17
        C 217.65 153.58 220.55 150.02 224.26 147.07
        Q 230.50 142.12 236.97 139.31
        Q 241.02 137.54 246.36 136.04
        Q 248.76 135.36 250.74 135.18
        C 252.79 134.99 254.58 134.36 256.65 134.26
        Q 264.65 133.87 270.55 134.36
        Q 274.10 134.65 278.66 136.08
        Q 296.05 141.51 307.56 153.01
        Q 309.75 155.20 311.77 157.41
        Q 313.76 159.58 315.09 161.91
        C 316.45 164.31 317.96 166.50 319.10 169.05
        Q 322.21 175.99 323.15 181.79
        Q 323.99 186.97 324.34 195.73
        C 324.49 199.63 323.63 203.13 323.65 206.97
        A 1.18 1.18 0.0 0 1 323.28 207.83
        L 323.07 208.03
        A 1.15 1.13 -25.5 0 0 322.73 208.97
        C 322.95 210.77 321.94 212.15 321.53 213.87
        Q 320.54 218.07 317.82 222.25
        Q 317.58 222.62 317.50 223.06
        Z
        M 243.81 225.63
        Q 244.23 226.48 245.19 226.70
        Q 246.85 227.07 248.13 228.00
        Q 248.55 228.31 249.07 228.22
        Q 249.80 228.09 250.39 228.50
        Q 251.06 228.96 251.86 229.14
        Q 260.43 231.07 262.75 230.79
        Q 266.47 230.36 270.45 230.20
        Q 271.01 230.18 271.46 229.84
        Q 272.21 229.29 273.11 229.26
        Q 274.23 229.23 275.33 228.78
        Q 281.59 226.25 285.05 223.73
        Q 292.00 218.68 296.73 209.78
        C 297.86 207.67 298.22 205.23 298.77 202.94
        C 299.66 199.28 299.29 195.01 299.29 191.29
        C 299.29 189.03 298.37 187.20 298.43 184.99
        Q 298.44 184.41 298.03 184.00
        Q 297.40 183.37 297.45 182.41
        Q 297.47 181.83 297.25 181.30
        Q 290.86 166.45 275.83 161.09
        Q 272.43 159.88 268.49 159.49
        Q 264.17 159.07 259.96 159.15
        Q 254.25 159.25 249.88 161.01
        Q 243.22 163.70 236.77 170.26
        Q 229.02 178.13 227.12 186.81
        Q 226.53 189.55 226.15 192.36
        Q 225.74 195.36 226.11 198.03
        C 226.40 200.13 226.53 202.69 227.26 204.62
        Q 227.59 205.50 227.86 206.39
        Q 229.08 210.47 233.56 216.63
        Q 233.73 216.86 233.74 217.13
        L 233.75 217.41
        Q 233.78 217.88 234.22 218.05
        C 235.63 218.58 235.94 219.84 237.11 220.66
        Q 239.91 222.61 241.99 225.07
        A 1.37 1.34 81.0 0 0 242.53 225.47
        Q 242.77 225.57 242.99 225.42
        Q 243.52 225.05 243.81 225.63
        Z"
      />
      <path fill="#e0ded5" d="
        M 29.35 190.58
        Q 29.19 189.96 29.60 189.48
        Q 30.13 188.84 30.28 187.99
        Q 30.42 187.13 30.75 186.25
        Q 33.38 179.16 35.98 174.85
        Q 43.71 162.04 59.24 154.59
        Q 66.45 151.13 72.87 149.43
        C 74.05 149.11 75.10 149.44 76.21 148.82
        Q 76.97 148.40 77.84 148.31
        Q 88.94 147.08 97.13 148.30
        Q 100.78 148.85 105.18 150.08
        Q 109.23 151.21 113.22 153.08
        Q 120.37 156.44 124.80 160.74
        Q 125.73 161.64 126.66 162.36
        Q 130.45 165.30 133.17 168.41
        Q 134.67 170.11 136.19 171.84
        Q 136.89 172.64 137.29 173.62
        C 137.73 174.68 138.58 175.17 139.09 176.27
        Q 142.50 183.55 143.43 186.45
        Q 147.49 199.05 146.59 213.22
        Q 146.49 214.72 146.04 216.09
        Q 145.54 217.60 145.75 219.26
        A 1.74 1.73 -28.3 0 1 145.33 220.65
        Q 144.47 221.64 144.68 222.96
        Q 144.75 223.42 144.42 223.76
        C 143.81 224.37 143.80 225.18 143.46 225.98
        Q 139.50 235.45 134.23 243.49
        Q 132.98 245.39 131.37 246.98
        Q 124.36 253.86 115.51 259.32
        Q 113.62 260.48 111.22 261.55
        Q 110.96 261.67 110.68 261.69
        Q 110.54 261.71 110.40 261.67
        Q 110.22 261.62 110.04 261.69
        Q 105.81 263.35 101.58 264.53
        C 100.68 264.78 99.48 264.55 98.83 265.11
        Q 98.40 265.48 97.84 265.52
        Q 95.02 265.75 92.53 266.33
        Q 89.21 267.10 85.16 266.14
        Q 83.20 265.68 81.25 265.77
        Q 79.15 265.87 77.36 265.53
        Q 69.58 264.01 61.42 260.25
        Q 59.28 259.26 54.39 256.17
        Q 50.92 253.97 48.01 251.29
        Q 44.29 247.85 41.63 244.58
        Q 40.05 242.64 38.30 240.57
        Q 36.51 238.45 35.25 236.42
        Q 30.64 228.96 28.71 220.49
        Q 28.32 218.77 28.36 216.99
        A 1.37 1.37 0.0 0 0 28.08 216.13
        Q 27.48 215.37 27.41 214.41
        Q 26.61 203.29 28.36 193.94
        C 28.54 192.98 28.86 192.35 29.26 191.50
        Q 29.46 191.05 29.35 190.58
        Z
        M 77.50 173.47
        Q 72.71 174.95 69.64 176.92
        Q 57.15 184.92 52.39 199.59
        Q 51.80 201.40 51.76 203.44
        Q 51.73 205.48 51.65 207.51
        Q 51.39 214.22 54.71 220.64
        Q 63.21 237.09 80.14 240.66
        Q 83.38 241.35 86.02 241.25
        Q 88.75 241.14 91.70 241.19
        C 92.97 241.21 93.63 240.46 94.85 240.25
        Q 96.00 240.05 97.12 239.70
        Q 107.46 236.42 114.14 228.51
        Q 119.11 222.63 120.69 215.43
        Q 122.52 207.06 121.26 200.00
        Q 119.05 187.60 108.79 179.16
        C 108.06 178.57 107.24 178.60 106.52 177.80
        Q 105.90 177.11 105.08 176.62
        Q 101.76 174.63 98.35 173.47
        Q 96.31 172.78 94.07 172.60
        Q 91.64 172.40 89.25 172.13
        C 86.41 171.80 83.75 172.50 80.88 172.77
        Q 79.26 172.93 77.50 173.47
        Z"
      />
      <path fill="#e0ded5" d="
        M 468.72 158.48
        L 469.06 158.39
        Q 469.20 158.36 469.31 158.44
        Q 484.68 169.73 491.25 186.82
        Q 494.96 196.49 494.86 209.25
        Q 494.83 212.73 493.99 216.62
        Q 493.48 218.98 492.90 221.43
        Q 492.31 223.97 491.52 226.12
        Q 488.09 235.47 483.18 242.56
        C 479.72 247.56 475.67 251.13 471.09 254.78
        Q 464.52 260.01 455.78 262.77
        Q 442.57 266.94 428.77 266.80
        Q 426.73 266.77 424.73 266.24
        Q 423.17 265.82 421.41 265.63
        Q 415.77 265.04 407.44 261.46
        Q 407.09 261.31 406.87 260.99
        Q 406.63 260.64 406.22 260.66
        Q 405.79 260.68 405.42 260.46
        Q 398.30 256.21 393.36 251.10
        Q 389.63 247.24 385.95 242.94
        Q 383.13 239.63 381.31 235.20
        Q 375.26 220.40 375.48 204.44
        C 375.51 201.92 376.33 199.46 376.35 196.80
        C 376.36 195.06 377.15 194.03 377.42 192.42
        Q 379.01 183.14 384.72 174.97
        C 386.49 172.43 388.39 169.66 390.53 167.44
        C 393.66 164.18 396.37 160.97 400.01 158.26
        C 404.43 154.97 408.60 153.17 413.56 151.42
        Q 416.26 150.47 419.10 149.83
        Q 422.77 149.00 426.04 148.51
        Q 431.20 147.73 438.65 148.04
        Q 445.52 148.32 450.72 149.81
        Q 459.71 152.38 467.70 157.47
        Q 467.90 157.60 468.01 157.80
        Q 468.11 158.00 468.19 158.21
        Q 468.34 158.58 468.72 158.48
        Z
        M 444.74 173.47
        L 443.90 173.00
        Q 443.48 172.77 442.99 172.76
        Q 440.87 172.75 438.75 172.11
        C 437.06 171.60 435.22 171.91 433.46 171.79
        C 432.11 171.70 430.95 172.60 429.49 172.60
        Q 428.03 172.60 426.54 173.15
        Q 424.34 173.97 422.42 174.74
        Q 418.07 176.48 414.46 179.73
        Q 405.85 187.50 402.06 197.79
        C 401.75 198.64 401.81 199.29 401.40 200.08
        Q 400.89 201.08 400.68 202.25
        Q 399.22 210.44 401.39 218.77
        Q 403.12 225.43 408.95 231.05
        Q 415.79 237.64 422.94 239.94
        C 424.01 240.28 424.94 240.07 425.92 240.59
        Q 426.93 241.14 428.21 241.22
        Q 435.69 241.74 438.25 241.25
        Q 455.87 237.89 465.46 223.12
        C 466.54 221.47 467.04 219.75 467.85 218.01
        C 468.34 216.95 468.25 215.72 468.73 214.57
        Q 469.27 213.31 469.35 211.85
        Q 469.77 204.95 469.26 202.16
        Q 465.69 182.65 447.50 174.41
        Q 447.09 174.22 446.75 173.91
        Q 446.32 173.52 445.68 173.63
        Q 445.18 173.72 444.74 173.47
        Z"
      />
      <path fill="#e0ded5" d="
        M 287.44 379.23
        Q 287.02 378.96 287.00 378.44
        Q 285.97 343.65 286.32 321.39
        Q 286.35 318.96 286.16 316.65
        Q 285.95 314.09 285.87 311.81
        Q 285.21 293.19 285.74 274.66
        A 1.35 1.34 2.3 0 1 287.16 273.36
        Q 290.38 273.51 293.11 272.64
        C 294.88 272.07 296.64 272.30 298.42 271.64
        C 299.68 271.17 300.86 271.26 302.20 271.27
        Q 302.81 271.27 303.29 270.90
        Q 304.44 270.04 305.85 270.24
        Q 306.52 270.34 307.11 270.00
        C 308.72 269.05 310.28 269.37 312.01 268.92
        Q 316.73 267.68 321.41 266.66
        Q 325.17 265.85 332.17 263.54
        Q 333.04 263.25 333.92 263.27
        C 334.91 263.30 335.35 262.62 336.25 262.39
        Q 345.97 259.87 356.53 255.43
        A 2.21 2.17 -53.3 0 1 357.63 255.26
        Q 358.75 255.37 359.47 254.55
        Q 359.91 254.05 360.57 254.16
        Q 363.74 254.66 365.39 251.98
        Q 368.89 246.32 373.88 242.31
        Q 374.99 241.42 375.75 240.19
        A 0.42 0.42 0.0 0 1 376.50 240.26
        L 379.16 246.75
        Q 379.29 247.07 379.52 247.32
        Q 379.86 247.68 379.75 248.18
        Q 379.63 248.70 379.90 249.17
        Q 381.29 251.63 381.82 254.45
        Q 381.90 254.87 382.24 255.11
        Q 382.68 255.44 382.72 255.99
        Q 382.75 256.48 382.94 256.94
        Q 384.13 259.87 384.51 263.01
        Q 384.58 263.58 384.31 264.09
        C 383.61 265.37 384.12 266.31 383.36 267.54
        Q 381.45 270.60 379.44 272.78
        Q 378.35 273.96 376.82 274.62
        Q 375.70 275.10 374.68 275.76
        Q 373.78 276.34 372.78 276.74
        Q 370.80 277.54 368.76 278.22
        Q 348.94 284.83 337.82 287.44
        Q 333.58 288.43 329.59 289.39
        Q 328.48 289.66 327.37 289.82
        C 326.13 290.00 325.12 290.53 323.84 290.74
        Q 316.38 291.97 309.51 293.53
        Q 307.79 293.91 308.58 295.53
        A 2.07 1.93 -59.8 0 1 308.78 296.41
        Q 308.64 305.87 309.24 315.68
        Q 310.00 328.18 309.73 347.58
        C 309.70 349.69 310.19 351.72 310.21 353.84
        Q 310.57 382.43 311.04 409.75
        Q 311.08 411.95 311.15 414.25
        Q 312.17 447.34 311.66 478.89
        A 1.59 1.55 60.7 0 1 311.47 479.60
        Q 311.36 479.79 311.18 479.91
        Q 310.90 480.11 310.81 480.45
        Q 309.80 484.51 305.92 486.90
        Q 299.48 490.87 293.28 486.46
        Q 291.90 485.48 290.03 482.18
        Q 289.33 480.95 289.34 479.67
        C 289.35 478.34 288.69 477.41 288.56 476.08
        Q 288.29 473.46 288.27 471.00
        Q 288.18 458.82 288.23 436.75
        C 288.24 432.87 287.73 428.96 288.06 425.10
        Q 288.26 422.76 288.00 420.46
        Q 286.98 411.34 288.28 402.80
        Q 288.45 401.71 287.34 401.71
        C 271.34 401.79 255.33 402.27 239.61 401.33
        A 0.81 0.81 0.0 0 0 238.75 402.14
        Q 238.72 422.20 238.27 440.73
        C 238.21 443.17 237.70 445.51 237.73 447.93
        Q 237.88 459.39 237.54 469.28
        Q 237.46 471.38 237.03 473.63
        C 236.66 475.55 236.59 477.38 236.15 479.30
        Q 234.46 486.51 227.62 488.46
        Q 222.08 490.03 217.23 486.54
        Q 212.25 482.95 212.28 475.92
        C 212.31 469.26 213.19 462.24 213.21 455.46
        Q 213.26 442.49 213.32 429.75
        Q 213.35 424.42 213.77 419.41
        Q 214.21 414.21 214.20 409.57
        Q 214.13 377.33 214.51 345.75
        C 214.58 339.72 215.26 333.71 215.18 327.73
        Q 215.02 315.23 216.06 303.37
        Q 216.25 301.14 216.04 299.17
        Q 215.83 297.25 216.23 295.40
        Q 216.36 294.78 215.75 294.63
        Q 212.40 293.83 209.38 293.65
        Q 208.69 293.61 208.04 293.03
        A 1.29 1.27 -30.3 0 0 206.90 292.74
        Q 205.12 293.13 203.86 291.98
        Q 203.55 291.70 203.13 291.72
        Q 201.46 291.79 199.88 291.18
        C 197.96 290.44 196.07 290.95 194.08 290.02
        C 193.18 289.60 192.08 289.63 191.08 289.39
        Q 185.29 288.05 179.26 286.71
        Q 178.01 286.43 176.80 285.98
        C 175.76 285.59 174.64 285.69 173.50 285.31
        Q 161.54 281.32 150.50 277.73
        A 7.72 5.37 20.1 0 1 149.48 277.34
        C 146.58 276.07 143.15 274.99 140.47 273.17
        Q 134.52 269.14 134.12 262.01
        Q 133.93 258.42 135.18 254.77
        Q 137.02 249.46 139.32 245.76
        Q 140.01 244.65 140.47 243.60
        A 2.20 2.02 82.3 0 1 140.93 242.94
        L 142.18 241.77
        Q 142.54 241.43 142.53 240.94
        Q 142.51 240.18 143.13 239.65
        Q 143.52 239.32 143.80 239.75
        Q 144.20 240.37 144.97 240.26
        A 1.14 1.09 58.3 0 1 145.78 240.47
        Q 147.16 241.51 147.84 242.77
        C 148.92 244.78 150.62 246.47 151.95 248.39
        Q 153.02 249.93 154.88 251.12
        Q 157.87 253.03 160.07 253.70
        Q 165.04 255.21 174.62 258.73
        Q 182.37 261.58 192.35 264.05
        Q 193.03 264.21 193.68 264.24
        Q 194.46 264.26 194.93 264.87
        Q 195.25 265.29 195.78 265.24
        C 197.17 265.10 198.27 265.73 199.56 266.11
        Q 203.54 267.29 207.43 267.99
        Q 212.02 268.82 215.48 269.65
        Q 217.49 270.14 219.33 270.22
        Q 220.70 270.29 221.95 270.74
        C 224.00 271.49 226.10 271.00 228.18 271.70
        Q 229.51 272.15 231.12 272.40
        Q 232.42 272.60 233.48 272.87
        Q 236.18 273.57 239.16 273.40
        Q 239.65 273.38 239.66 273.87
        C 240.01 295.87 239.32 317.79 238.93 340.06
        C 238.92 340.79 238.63 341.35 238.63 342.00
        Q 238.80 359.25 238.63 377.54
        Q 238.62 378.52 238.33 379.43
        Q 238.06 380.27 238.63 380.94
        Q 238.99 381.37 239.53 381.22
        Q 243.30 380.20 246.54 380.30
        Q 265.67 380.88 284.19 380.23
        C 285.38 380.19 286.52 380.99 287.52 379.92
        Q 287.89 379.52 287.44 379.23
        Z"
      />
      <path fill="#e0ded5" d="
        M 65.08 298.16
        Q 65.02 298.30 65.03 298.45
        Q 65.05 298.72 64.93 298.96
        Q 58.92 311.21 53.64 325.98
        Q 52.11 330.27 50.82 335.28
        Q 50.60 336.15 50.16 336.85
        Q 49.87 337.29 49.89 337.82
        Q 49.95 339.57 49.08 340.94
        A 2.15 2.13 -30.4 0 0 48.75 342.18
        C 48.80 343.32 48.28 344.26 47.97 345.35
        Q 46.67 349.87 45.79 354.08
        Q 44.94 358.12 44.16 361.40
        C 43.79 362.99 43.99 364.74 43.14 366.07
        Q 42.87 366.47 42.88 366.96
        Q 42.92 369.05 42.18 371.03
        C 41.43 373.03 41.87 374.95 41.31 376.96
        C 40.72 379.08 40.90 381.12 40.35 383.25
        Q 40.03 384.51 39.85 385.80
        Q 39.15 391.06 38.52 396.03
        Q 38.39 397.08 37.92 398.03
        Q 37.70 398.48 37.74 398.98
        Q 37.94 401.82 37.22 404.55
        C 36.51 407.26 36.98 409.86 36.27 412.50
        Q 35.65 414.79 35.76 417.05
        C 35.88 419.36 34.65 421.08 34.78 423.23
        Q 34.93 425.62 34.34 427.77
        Q 33.74 430.01 33.76 432.36
        Q 33.77 434.29 33.21 435.98
        C 32.40 438.45 33.04 440.80 32.34 443.23
        Q 31.79 445.16 31.70 447.12
        C 31.61 449.12 30.72 450.82 30.72 452.76
        Q 30.72 455.05 30.12 457.25
        C 29.51 459.44 29.91 461.63 29.07 463.77
        C 28.34 465.62 29.13 467.40 28.45 469.25
        Q 27.60 471.54 27.74 474.02
        Q 27.79 474.75 27.48 475.42
        Q 26.66 477.16 26.64 479.09
        Q 26.63 479.59 26.20 479.84
        Q 25.61 480.19 25.58 480.86
        Q 25.55 481.43 25.29 481.93
        Q 23.37 485.56 19.15 487.39
        Q 14.77 489.28 11.09 488.01
        Q 6.63 486.47 4.50 482.49
        Q 3.12 479.92 3.03 476.39
        C 2.90 470.84 3.91 465.95 4.38 460.65
        C 4.53 459.05 5.33 457.72 5.30 456.10
        C 5.25 453.15 6.24 450.61 6.26 447.76
        C 6.28 444.77 7.19 442.12 7.52 439.16
        Q 8.12 433.73 8.88 428.28
        Q 9.23 425.72 9.32 423.16
        C 9.39 420.82 10.29 418.68 10.26 416.33
        C 10.23 413.25 11.33 410.43 11.25 407.38
        Q 11.19 405.14 11.73 403.14
        C 12.55 400.12 12.05 397.13 13.02 394.23
        Q 13.50 392.77 13.47 391.17
        C 13.43 388.86 14.36 386.89 14.33 384.63
        C 14.31 382.77 15.07 381.34 15.31 379.59
        Q 17.68 362.83 20.72 349.98
        Q 20.85 349.44 21.13 348.95
        Q 21.39 348.50 21.35 347.98
        Q 21.22 346.40 22.06 345.04
        A 2.06 2.05 -30.8 0 0 22.36 343.87
        C 22.29 342.33 22.93 341.22 23.28 339.80
        Q 26.63 326.14 30.70 315.15
        Q 31.32 313.48 31.86 311.89
        Q 32.42 310.25 33.15 308.67
        Q 39.77 294.36 47.39 281.20
        Q 48.31 279.62 49.49 278.09
        C 51.63 275.32 53.62 271.64 57.56 271.11
        Q 58.42 271.00 59.19 270.64
        Q 61.47 269.56 63.94 270.91
        Q 64.34 271.13 64.79 271.15
        Q 68.96 271.30 73.44 271.20
        Q 75.20 271.16 76.98 271.96
        C 79.78 273.24 81.99 274.25 83.85 276.88
        Q 86.34 280.41 88.07 284.04
        C 92.62 293.56 99.92 302.15 108.15 307.83
        Q 117.08 313.99 128.26 317.70
        Q 129.54 318.13 130.87 318.15
        Q 132.04 318.16 132.89 318.86
        Q 133.29 319.17 133.79 319.18
        Q 146.45 319.41 159.23 319.03
        Q 162.28 318.94 164.08 319.78
        Q 166.49 320.89 168.31 322.88
        Q 168.74 323.35 168.82 323.97
        Q 168.93 324.81 169.53 325.42
        A 1.32 1.31 26.2 0 1 169.89 326.46
        C 169.71 328.27 170.20 330.02 169.49 331.78
        C 168.63 333.87 168.30 335.84 166.93 337.75
        C 163.32 342.78 159.02 344.74 153.48 346.27
        Q 149.03 347.49 144.38 346.55
        Q 141.98 346.05 139.46 345.62
        Q 134.48 344.77 129.60 343.45
        Q 128.26 343.09 126.93 342.90
        Q 125.32 342.67 124.16 342.25
        Q 122.33 341.58 120.45 341.09
        Q 118.49 340.59 116.69 339.88
        Q 107.23 336.19 103.88 334.42
        Q 92.08 328.18 83.34 321.13
        Q 74.87 314.30 68.67 303.39
        A 0.89 0.83 -60.3 0 1 68.55 302.88
        Q 68.59 302.30 68.10 302.06
        Q 67.69 301.86 67.58 301.42
        Q 67.13 299.62 65.53 298.09
        A 0.29 0.29 0.0 0 0 65.08 298.16
        Z"
      />
      <path fill="#e0ded5" d="
        M 502.92 490.00
        L 500.31 490.00
        Q 493.41 487.47 491.60 481.99
        Q 490.42 478.43 490.27 474.00
        Q 490.19 471.24 489.65 468.59
        C 489.15 466.14 489.36 463.74 488.87 461.31
        C 488.22 458.11 488.61 454.75 487.67 451.58
        C 487.08 449.61 487.49 447.62 486.95 445.63
        Q 486.20 442.88 486.34 439.76
        C 486.47 436.92 485.20 434.47 485.26 431.56
        Q 485.33 428.79 484.73 426.00
        C 484.17 423.42 484.71 420.75 483.95 418.29
        Q 483.16 415.73 483.24 412.87
        C 483.35 409.05 482.18 405.28 482.24 401.36
        Q 482.28 398.81 481.69 396.14
        Q 481.31 394.38 481.28 392.49
        Q 481.26 390.80 480.95 389.01
        C 480.49 386.26 480.27 383.53 479.86 380.75
        Q 478.76 373.36 477.43 366.75
        C 477.12 365.19 477.34 363.76 476.83 362.23
        Q 476.08 360.04 476.25 357.76
        Q 476.28 357.30 475.99 356.95
        Q 475.62 356.50 475.55 355.89
        Q 474.99 351.52 473.88 346.93
        Q 469.62 329.34 464.26 313.58
        Q 463.09 310.14 461.55 306.69
        C 459.99 303.19 458.55 299.02 456.11 295.87
        Q 455.25 294.76 454.71 296.06
        Q 453.51 298.96 452.30 301.81
        Q 451.12 304.61 449.49 307.18
        Q 443.98 315.82 438.91 320.57
        Q 431.88 327.15 424.68 331.32
        Q 418.80 334.73 410.08 338.12
        Q 400.46 341.87 391.71 343.55
        Q 388.34 344.20 385.33 344.80
        Q 376.88 346.49 366.27 345.54
        Q 365.70 345.49 365.23 345.17
        Q 364.34 344.57 363.26 344.74
        A 1.52 1.49 53.1 0 1 362.34 344.60
        Q 360.55 343.70 358.57 342.93
        C 355.34 341.68 352.96 337.20 352.44 334.15
        Q 351.73 330.01 352.33 325.96
        Q 353.07 320.89 358.02 319.27
        C 359.02 318.94 359.89 319.42 360.98 319.11
        Q 362.50 318.68 363.98 318.83
        Q 371.48 319.56 386.21 319.29
        Q 388.14 319.26 389.71 318.74
        Q 391.46 318.18 393.18 318.19
        Q 393.65 318.19 394.04 317.94
        Q 395.44 317.07 397.05 317.25
        Q 397.53 317.31 397.91 317.01
        C 399.02 316.17 400.62 316.04 402.01 315.52
        Q 415.70 310.42 424.31 298.59
        Q 430.94 289.49 436.12 280.00
        C 436.93 278.52 438.15 276.55 439.51 275.56
        Q 447.23 269.94 456.07 270.39
        C 457.97 270.48 459.65 271.15 461.48 271.17
        Q 462.54 271.19 463.54 271.67
        Q 470.66 275.14 473.82 280.67
        Q 478.53 288.92 483.78 298.51
        Q 486.57 303.62 488.87 309.89
        Q 491.46 316.99 494.05 324.15
        Q 496.42 330.70 498.23 338.72
        Q 500.55 348.98 502.45 358.51
        Q 502.73 359.92 502.70 360.77
        Q 502.69 361.27 502.87 361.72
        C 503.98 364.51 503.51 367.02 504.33 369.74
        C 505.07 372.17 504.51 374.56 505.16 377.02
        C 506.01 380.28 505.49 383.48 506.19 386.74
        C 507.03 390.65 506.47 394.53 507.34 398.49
        Q 507.88 400.94 507.77 403.55
        C 507.60 407.49 509.00 411.04 508.75 415.11
        C 508.59 417.88 509.88 420.28 509.75 423.16
        Q 509.64 425.76 510.23 428.33
        C 510.90 431.24 510.55 434.13 511.11 437.01
        Q 511.65 439.80 511.67 442.52
        Q 511.70 445.54 512.39 448.47
        C 513.08 451.40 512.42 454.18 513.18 457.11
        C 514.18 460.98 513.43 464.78 514.22 468.72
        Q 515.48 475.00 514.40 479.25
        Q 512.48 486.86 502.92 490.00
        Z"
      />
      <path fill="#e0ded5" d="
        M 91.67 459.92
        Q 91.67 459.98 91.69 460.03
        Q 91.77 460.28 91.61 460.48
        C 90.53 461.88 90.35 463.45 88.69 464.46
        C 86.80 465.60 84.89 466.77 82.61 466.85
        Q 74.54 467.17 70.33 459.83
        Q 69.00 457.50 69.17 454.30
        C 69.32 451.61 69.18 448.95 69.37 446.24
        C 70.11 435.19 69.42 424.58 69.22 414.73
        C 69.18 412.68 68.52 410.78 68.44 408.74
        C 68.34 406.29 67.50 404.25 67.24 401.84
        Q 67.09 400.50 66.67 399.07
        C 65.62 395.57 64.63 392.21 63.02 388.78
        Q 60.35 383.09 57.92 376.92
        C 56.99 374.56 57.48 372.89 57.15 370.58
        Q 57.06 369.94 57.54 369.51
        Q 58.28 368.84 58.24 367.85
        Q 58.22 367.32 58.68 367.07
        Q 59.28 366.73 59.26 366.00
        A 0.99 0.98 -23.5 0 1 59.55 365.28
        Q 61.44 363.42 64.33 362.56
        Q 66.17 362.02 67.94 361.67
        Q 69.71 361.33 71.87 362.10
        Q 77.26 364.02 80.65 368.57
        Q 82.19 370.64 83.63 372.86
        Q 85.28 375.39 86.24 377.65
        Q 92.39 392.28 93.75 403.28
        Q 94.15 406.55 94.46 409.88
        Q 95.00 415.55 95.19 421.00
        Q 95.39 426.60 94.97 432.99
        Q 94.67 437.75 94.52 442.04
        Q 94.45 443.84 93.97 446.13
        C 93.38 448.95 94.22 451.46 92.87 454.23
        Q 92.62 454.75 92.73 455.32
        Q 93.18 457.52 91.94 459.11
        Q 91.64 459.50 91.67 459.92
        Z"
      />
      <path fill="#e0ded5" d="
        M 447.15 457.35
        Q 445.75 462.09 441.81 465.50
        A 1.40 1.39 -67.5 0 1 440.97 465.85
        Q 440.24 465.90 439.69 466.39
        Q 439.28 466.76 438.73 466.76
        L 433.32 466.78
        Q 432.87 466.78 432.50 466.53
        Q 431.26 465.67 429.97 464.87
        C 425.23 461.94 424.10 457.58 424.19 452.00
        C 424.30 444.94 423.81 437.52 424.04 430.38
        Q 424.31 421.89 424.26 413.86
        C 424.25 410.71 425.19 407.39 425.40 404.11
        Q 425.46 403.17 426.09 401.77
        Q 426.33 401.25 426.26 400.69
        Q 426.01 398.65 426.98 396.95
        Q 427.24 396.49 427.21 395.95
        Q 427.15 394.98 427.56 394.11
        Q 427.96 393.26 428.21 392.32
        Q 429.84 386.14 430.92 383.99
        Q 431.68 382.49 432.06 381.35
        Q 432.52 379.97 433.10 378.71
        C 435.27 374.00 437.12 370.12 440.93 366.40
        Q 444.18 363.23 448.10 362.46
        Q 452.76 361.54 457.06 363.91
        Q 460.04 365.55 462.09 368.09
        Q 462.59 368.71 462.49 369.49
        Q 462.42 370.03 462.69 370.50
        Q 464.38 373.45 463.41 376.35
        Q 463.31 376.65 460.89 381.43
        Q 457.77 387.54 455.24 392.68
        Q 453.20 396.79 452.99 398.02
        Q 452.68 399.80 451.95 401.28
        Q 451.72 401.75 451.75 402.27
        Q 451.85 404.31 450.95 406.02
        Q 450.71 406.49 450.74 407.02
        C 450.97 410.00 449.76 412.41 449.74 415.41
        Q 449.71 419.60 449.25 424.15
        C 448.51 431.48 448.85 438.51 448.59 445.81
        C 448.47 449.10 447.58 452.20 447.78 455.54
        C 447.82 456.27 447.34 456.70 447.15 457.35
        Z"
      />
    </symbol>
    
    <symbol id="hamburger-menu" viewBox="0 0 512 512">
      <path fill="none" stroke="currentColor" stroke-linecap="round" stroke-miterlimit="10" stroke-width="32" d="M80 160h352M80 256h352M80 352h352"/>
    </symbol>
  </defs>
</svg>