<?xml version="1.0" encoding="utf-8"?>
<svg xmlns="http://www.w3.org/2000/svg">
  <defs>
    <symbol id="quote-1" viewBox="0 0 16 16">
      <path d="M12.0001 12C12.2653 12 12.5196 11.8946 12.7072 11.7071C12.8947 11.5196 13.0001 11.2652 13.0001 11V8.558C13.0001 8.29278 12.8947 8.03843 12.7072 7.85089C12.5196 7.66336 12.2653 7.558 12.0001 7.558H10.6121C10.6121 7.207 10.6331 6.855 10.6741 6.504C10.7361 6.132 10.8401 5.801 10.9841 5.512C11.1291 5.222 11.3151 4.995 11.5431 4.829C11.7701 4.643 12.0591 4.55 12.4111 4.55V3C11.8321 3 11.3261 3.124 10.8911 3.372C10.4598 3.61749 10.0891 3.95645 9.80605 4.364C9.52198 4.81331 9.3126 5.3057 9.18605 5.822C9.05854 6.39176 8.99614 6.97416 9.00005 7.558V11C9.00005 11.2652 9.10541 11.5196 9.29294 11.7071C9.48048 11.8946 9.73483 12 10.0001 12H12.0001ZM6.00005 12C6.26527 12 6.51962 11.8946 6.70716 11.7071C6.89469 11.5196 7.00005 11.2652 7.00005 11V8.558C7.00005 8.29278 6.89469 8.03843 6.70716 7.85089C6.51962 7.66336 6.26527 7.558 6.00005 7.558H4.61205C4.61205 7.207 4.63305 6.855 4.67405 6.504C4.73605 6.132 4.84005 5.801 4.98405 5.512C5.12905 5.222 5.31505 4.995 5.54305 4.829C5.77005 4.643 6.05905 4.55 6.41105 4.55V3C5.83205 3 5.32605 3.124 4.89105 3.372C4.45984 3.61749 4.08909 3.95645 3.80605 4.364C3.52198 4.81331 3.3126 5.3057 3.18605 5.822C3.05854 6.39176 2.99614 6.97416 3.00005 7.558V11C3.00005 11.2652 3.10541 11.5196 3.29294 11.7071C3.48048 11.8946 3.73483 12 4.00005 12H6.00005Z" fill="#344e41"/>
    </symbol>

    <symbol id="quote-2" viewBox="0 0 16 16">
      <path d="M3.99995 4C3.73473 4 3.48038 4.10536 3.29284 4.29289C3.10531 4.48043 2.99995 4.73478 2.99995 5L2.99995 7.442C2.99995 7.70722 3.10531 7.96157 3.29284 8.14911C3.48038 8.33664 3.73473 8.442 3.99995 8.442H5.38795C5.38795 8.793 5.36695 9.145 5.32595 9.496C5.26395 9.868 5.15995 10.199 5.01595 10.488C4.87095 10.778 4.68495 11.005 4.45695 11.171C4.22995 11.357 3.94095 11.45 3.58895 11.45V13C4.16795 13 4.67395 12.876 5.10895 12.628C5.54016 12.3825 5.91091 12.0435 6.19395 11.636C6.47802 11.1867 6.6874 10.6943 6.81395 10.178C6.94146 9.60824 7.00386 9.02584 6.99995 8.442L6.99995 5C6.99995 4.73478 6.89459 4.48043 6.70706 4.29289C6.51952 4.10536 6.26517 4 5.99995 4L3.99995 4ZM9.99995 4C9.73473 4 9.48038 4.10536 9.29284 4.29289C9.10531 4.48043 8.99995 4.73478 8.99995 5L8.99995 7.442C8.99995 7.70722 9.10531 7.96157 9.29284 8.14911C9.48038 8.33664 9.73473 8.442 9.99995 8.442H11.3879C11.3879 8.793 11.3669 9.145 11.3259 9.496C11.2639 9.868 11.1599 10.199 11.0159 10.488C10.8709 10.778 10.6849 11.005 10.4569 11.171C10.2299 11.357 9.94095 11.45 9.58895 11.45V13C10.1679 13 10.6739 12.876 11.1089 12.628C11.5402 12.3825 11.9109 12.0435 12.1939 11.636C12.478 11.1867 12.6874 10.6943 12.8139 10.178C12.9415 9.60824 13.0039 9.02584 12.9999 8.442L12.9999 5C12.9999 4.73478 12.8946 4.48043 12.7071 4.29289C12.5195 4.10536 12.2652 4 11.9999 4L9.99995 4Z" fill="#344e41"/>
    </symbol>
  </defs>
</svg>