<?xml version="1.0" encoding="utf-8"?>
<svg xmlns="http://www.w3.org/2000/svg">
  <defs>
    <symbol id="step-1" viewBox="0 0 443.57 607.17">
      <path d="m392.63,606.19h-193.12c-28.09,0-50.94-22.85-50.94-50.94V50.94c0-28.09,22.85-50.94,50.94-50.94h193.12c28.09,0,50.94,22.85,50.94,50.94v504.31c0,28.09-22.85,50.94-50.94,50.94Z" fill="#dadbdc" stroke-width="0"/><path d="m392.77,592.4h-193.4c-20.79,0-37.71-16.92-37.71-37.71V50.51c0-20.79,16.92-37.71,37.71-37.71h193.4c20.79,0,37.71,16.92,37.71,37.71v504.18c0,20.79-16.92,37.71-37.71,37.71Z" fill="#fff" stroke-width="0"/><path d="m323.42,46.36h-54.69c-7.22,0-13.09-5.87-13.09-13.09s5.87-13.09,13.09-13.09h54.69c7.22,0,13.09,5.87,13.09,13.09s-5.87,13.09-13.09,13.09Z" fill="#dadbdc" stroke-width="0"/><path d="m379.23,200.32h-160.03c-3.17,0-5.75-3.28-5.75-7.3s2.58-7.3,5.75-7.3h160.03c3.17,0,5.75,3.28,5.75,7.3s-2.58,7.3-5.75,7.3Z" fill="#dadbdc" stroke-width="0"/><path d="m379.23,232.67h-160.03c-3.17,0-5.75-3.28-5.75-7.3s2.58-7.3,5.75-7.3h160.03c3.17,0,5.75,3.28,5.75,7.3s-2.58,7.3-5.75,7.3Z" fill="#dadbdc" stroke-width="0"/><path d="m333.34,265.02h-114.14c-3.17,0-5.75-3.28-5.75-7.3s2.58-7.3,5.75-7.3h114.14c3.17,0,5.75,3.28,5.75,7.3s-2.58,7.3-5.75,7.3Z" fill="#dadbdc" stroke-width="0"/><circle cx="296.07" cy="386.91" r="68.31" fill="#344e41" stroke-width="0"/><path d="m277.9,388.33c3.53,6.91,7.06,13.83,10.59,20.74,1.01,1.99,3.98,1.36,4.57-.6,4.63-15.44,13.23-29.51,24.82-40.7,2.32-2.24-1.22-5.77-3.54-3.54-12.2,11.78-21.23,26.67-26.11,42.91l4.57-.6c-3.53-6.91-7.06-13.83-10.59-20.74-1.46-2.87-5.78-.34-4.32,2.52h.01Z" fill="#fff" stroke-width="0"/><polygon points="111.92 304.28 95.36 309.93 95.1 286.02 110.17 285.85 111.92 304.28" fill="#f3a3a6" stroke-width="0"/><circle cx="97.04" cy="276.06" r="16.56" fill="#f3a3a6" stroke-width="0"/><path d="m101.57,274.37c-2.77-.05-4.62-2.83-5.73-5.38-1.11-2.54-2.25-5.47-4.82-6.5-2.11-.84-5.75,5.03-7.43,3.5-1.75-1.6-.15-9.94,1.67-11.45s4.33-1.83,6.69-1.97c5.77-.33,11.57.07,17.24,1.19,3.5.69,7.12,1.75,9.67,4.25,3.23,3.17,4.1,8,4.38,12.52.29,4.62.07,9.47-2.13,13.55-2.21,4.07-6.88,7.11-11.41,6.13-.48-2.45-.05-4.97.1-7.47.15-2.49-.07-5.18-1.61-7.15s-4.8-2.72-6.55-.94" fill="#2f2e43" stroke-width="0"/><path d="m122,279.88c1.64-1.23,3.61-2.27,5.65-2.04,2.21.24,4.09,2.04,4.68,4.18s-.02,4.51-1.36,6.28-3.35,2.95-5.49,3.55c-1.24.35-2.59.5-3.78,0-1.75-.73-2.71-2.94-2.05-4.72" fill="#2f2e43" stroke-width="0"/><path id="uuid-aacd27ab-43c3-4d3d-aa57-4e8c94c3c81e-795" d="m60.38,436.33c-1.04,5.45,1.03,10.4,4.64,11.05,3.6.65,7.37-3.25,8.41-8.7.45-2.17.35-4.42-.29-6.55l12.74-85.41-17.16-3.03-5.65,86.63c-1.38,1.77-2.31,3.83-2.69,6.02h0Z" fill="#f3a3a6" stroke-width="0"/><path d="m95.06,298.96l-11.69.13c-8.25,1.34-10.45,5.78-12.23,13.94-2.73,12.45-6.21,29.04-5.48,29.27,1.17.38,21.17,9.52,31.29,7.26l-1.89-50.6Z" fill="#344e41" stroke-width="0"/><rect x="93.98" y="570.5" width="15.56" height="22.07" transform="translate(-6.49 1.17) rotate(-.64)" fill="#f3a3a6" stroke-width="0"/><path d="m79.06,606.19c-1.64.02-3.09,0-4.19-.09-4.14-.33-8.11-3.34-10.12-5.1-.9-.79-1.2-2.07-.75-3.17h0c.32-.79.98-1.39,1.8-1.64l10.89-3.24,17.55-12.13.2.35c.08.13,1.85,3.24,2.45,5.35.23.8.18,1.47-.15,1.99-.23.36-.55.57-.81.7.32.33,1.33,1,4.43,1.46,4.51.67,5.42-4.02,5.45-4.22l.03-.16.13-.09c2.13-1.41,3.44-2.05,3.9-1.92.29.08.76.22,2.18,12.94.13.4,1.06,3.32.48,6.13-.63,3.06-13.96,2.15-16.62,1.94-.08.01-10.04.83-16.87.9h.02Z" fill="#2f2e43" stroke-width="0"/><rect x="145.13" y="555" width="15.56" height="22.07" transform="translate(-280.8 171.48) rotate(-32.59)" fill="#f3a3a6" stroke-width="0"/><path d="m136.51,602.52c-1.83.02-3.51-.18-4.71-.38-1.18-.2-2.11-1.12-2.31-2.3h0c-.15-.85.1-1.7.66-2.34l7.52-8.51,8.47-19.58.36.19c.13.07,3.28,1.77,4.91,3.24.62.56.93,1.15.93,1.77,0,.43-.16.78-.32,1.02.45.11,1.66.14,4.53-1.11,4.18-1.82,2.47-6.28,2.39-6.46l-.06-.15.07-.14c1.06-2.32,1.84-3.56,2.29-3.7.29-.08.76-.22,8.7,9.82.32.27,2.66,2.25,3.65,4.94,1.08,2.93-10.7,9.21-13.08,10.44-.07.06-12.38,9.21-17.44,11.83-2.01,1.04-4.4,1.38-6.58,1.4l.02.02h0Z" fill="#2f2e43" stroke-width="0"/><path d="m118.79,385.68l-43.56.48-3.5,40.56,18.96,149.54,22.24-.25-9.85-86.38,36.94,77.68,19.61-14.06-28.98-72.58s9.36-63.61,1.28-79.34-13.13-15.67-13.13-15.67v.02h0Z" fill="#2f2e43" stroke-width="0"/><polygon points="140.48 387.91 71.3 388.68 91.06 299.01 121.21 298.67 140.48 387.91" fill="#344e41" stroke-width="0"/><path id="uuid-36382701-bf34-46f2-bbf2-9fa794ab079f-796" d="m147.24,435.37c1.16,5.43-.8,10.42-4.39,11.15-3.59.73-7.44-3.08-8.6-8.51-.5-2.16-.45-4.41.14-6.56l-14.64-85.11,17.09-3.41,7.57,86.49c1.42,1.74,2.39,3.78,2.83,5.96h0Z" fill="#f3a3a6" stroke-width="0"/><path d="m109.52,298.8l11.69-.13c8.28,1.16,10.57,5.55,12.54,13.67,3,12.39,6.85,28.89,6.13,29.14-1.17.4-20.95,9.98-31.12,7.95l.77-50.63h-.01Z" fill="#344e41" stroke-width="0"/><path d="m215.08,606.19c0,.54-.44.98-.98.98H.98c-.54,0-.98-.44-.98-.98s.44-.98.98-.98h213.12c.54,0,.98.44.98.98h0Z" fill="#3f3d58" stroke-width="0"/>
    </symbol>

    <symbol id="step-2" viewBox="0 0 434.25755 761.18545">
      <path d="M470.53814,150.812,457.49763,92.94325l-4.2535-18.85191a6.0132,6.0132,0,0,0-7.1943-4.53362l-6.424,1.45287L388.1111,82.63338a6.00016,6.00016,0,0,0-4.53363,7.17667c-2.76558,25.74866,2.69571,49.50171,14.546,71.732.87521,1.66292,1.803,3.32584,2.76569,4.98875a5.93514,5.93514,0,0,0,1.698,3.01067,6.02479,6.02479,0,0,0,5.4787,1.52285l6.75669-1.52285,4.166-.94519,47.01615-10.60752A6.0037,6.0037,0,0,0,470.53814,150.812Z" transform="translate(-382.87122 -69.40728)" fill="#e6e6e6"/><path d="M465.14694,147.59131l-12.428-55.05062-2.97563-13.21562a5.62736,5.62736,0,0,0-6.72164-4.2535l-3.956.89273L393.22228,86.30921a5.6274,5.6274,0,0,0-4.25349,6.72165c.40256,20.04218,2.50308,38.229,11.13262,49.32672a25.06447,25.06447,0,0,0,17.1891,18.43183c.105.035.19252.07008.29754.105.07008.01752.15758.05256.22756.07008a24.87967,24.87967,0,0,0,12.2355.31506l30.84233-6.96673A5.62737,5.62737,0,0,0,465.14694,147.59131Z" transform="translate(-382.87122 -69.40728)" fill="#fff"/><path d="M419.47424,104.6649a7.17472,7.17472,0,0,1,8.39568-1.83068c3.05918,1.528,4.24616,4.779,3.75739,8.01154-.546,3.61116-2.43229,6.89855-2.60361,10.59594-.14993,3.23577,1.05626,6.63569,3.92362,8.37775,2.05611,1.24919,4.17243-1.84326,2.10645-3.09843-3.39963-2.06545-2.2572-6.60432-1.27107-9.70029,1.23134-3.86583,2.51446-7.80685.99117-11.79014A10.75885,10.75885,0,0,0,417.011,101.841c-1.62225,1.74928.82053,4.59525,2.46324,2.8239Z" transform="translate(-382.87122 -69.40728)" fill="#344e41"/><circle cx="53.10542" cy="67.4631" r="3.74666" fill="#344e41"/><path d="M671.78553,793.62382l-59.31518-.35422-19.32434-.113c-3.32055-.01728-6.04306,1.24516-6.0796,2.82019l-.07779,3.12386-.651,25.04745c-.04952,1.565,2.608,2.86449,5.92844,2.88181a251.579,251.579,0,0,0,73.14929,1.18587q2.731-.3311,5.49443-.72681a11.21563,11.21563,0,0,0,3.32254-.452c1.64013-.50577,2.7243-1.3732,2.75286-2.36011l.087-3.28506.04754-2.02616.59447-22.86012C677.75052,794.9306,675.089,793.63917,671.78553,793.62382Z" transform="translate(-382.87122 -69.40728)" fill="#e6e6e6"/><path d="M667.40149,795.75664l-56.43183-.32656-13.54537-.082c-3.10405-.01841-5.65864,1.16065-5.69743,2.633l-.04981,1.92348-.57772,22.29013c-.03879,1.4723,2.44682,2.68406,5.55087,2.70247,19.58831,2.02074,37.766,3.05382,50.56358.29408,9.316.04718,17.53244-2.3348,21.918-5.90152.05846-.0446.11285-.08111.17121-.12572.03331-.03041.0877-.06692.121-.09728a7.80929,7.80929,0,0,0,3.14628-5.61053l.38194-14.997C672.99115,796.98682,670.50541,795.77509,667.40149,795.75664Z" transform="translate(-382.87122 -69.40728)" fill="#fff"/><path d="M615.04678,812.10329c-1.7297-1.2285-1.91077-2.89848.16792-4.07515,2.1963-1.24322,5.63408-1.433,8.66485-.85158,3.38581.64949,6.14564,1.88168,9.7023,2.36778,3.11262.4254,6.69965.2432,9.05964-.888,1.6923-.81113-.82451-2.128-2.52492-1.313-2.79809,1.34114-6.94786.31435-9.73041-.48147-3.47447-.99371-7.01006-2.01959-11.23814-1.7553-7.69255.48085-11.70566,4.77826-7.41974,7.82227,1.325.94105,4.66021.12732,3.3185-.8256Z" transform="translate(-382.87122 -69.40728)" fill="#e6e6e6"/><ellipse cx="267.33175" cy="738.62768" rx="3.74666" ry="1.77717" fill="#e6e6e6"/><path d="M386.23115,359.36481c-5.15378-21.64585-4.29431-42.9657,4.53083-63.85372a4.89248,4.89248,0,0,1,5.22058-4.52878l48.22373,3.42178a4.89246,4.89246,0,0,1,4.52876,5.22057l-4.53083,63.85372a4.89246,4.89246,0,0,1-5.22055,4.52879l-48.22373-3.42178A4.89247,4.89247,0,0,1,386.23115,359.36481Z" transform="translate(-382.87122 -69.40728)" fill="#f2f2f2"/><path d="M391.29871,340.34079c-4.12451-10.66663-1.48736-25.33682,2.91283-41.051a4.58186,4.58186,0,0,1,4.88923-4.24135l41.44423,2.94074a4.582,4.582,0,0,1,4.24158,4.88924l-4.03183,56.82112a4.582,4.582,0,0,1-4.88945,4.24133l-25.67384-1.82173A20.40973,20.40973,0,0,1,391.29871,340.34079Z" transform="translate(-382.87122 -69.40728)" fill="#fff"/><path d="M419.99174,343.12468q-1.89889-.3263-3.79773-.65252a12.75221,12.75221,0,0,0,.99445-4.33808c.59912-7.99163.65954-16.05957.97918-24.06756a1.51851,1.51851,0,0,0-2.56067-1.06067q-4.76889,3.94995-9.53784,7.8999c-1.48816,1.23261.64441,3.34461,2.12134,2.12134q3.42288-2.83512,6.84583-5.67023-.31422,7.87061-.62836,15.7414c-.10047,2.51831.20563,5.57647-.82538,7.94378a3.82493,3.82493,0,0,1-.54694.88745q-2.10232-.36126-4.20471-.72247c-1.008-.17316-2.28882.66834-1.84521,1.84522.96472,2.55908,3.80853,3.36755,6.247,2.38128a5.0779,5.0779,0,0,0,.62237-.33337l5.33917.91736C421.08256,346.342,421.89372,343.45147,419.99174,343.12468Z" transform="translate(-382.87122 -69.40728)" fill="#f2f2f2"/><path d="M561.23115,365.36481c-5.15378-21.64585-4.29431-42.9657,4.53083-63.85372a4.89248,4.89248,0,0,1,5.22058-4.52878l48.22373,3.42178a4.89246,4.89246,0,0,1,4.52876,5.22057l-4.53083,63.85372a4.89246,4.89246,0,0,1-5.22055,4.52879l-48.22373-3.42178A4.89247,4.89247,0,0,1,561.23115,365.36481Z" transform="translate(-382.87122 -69.40728)" fill="#f2f2f2"/><path d="M566.29871,346.34079c-4.12451-10.66663-1.48736-25.33682,2.91283-41.051a4.58186,4.58186,0,0,1,4.88923-4.24135l41.44423,2.94074a4.582,4.582,0,0,1,4.24158,4.88924l-4.03183,56.82112a4.582,4.582,0,0,1-4.88945,4.24133l-25.67384-1.82173A20.40973,20.40973,0,0,1,566.29871,346.34079Z" transform="translate(-382.87122 -69.40728)" fill="#fff"/><path d="M593.3538,335.507a8.44646,8.44646,0,0,0,1.55511-.94306,8.60723,8.60723,0,0,0,2.81476-8.95166c-1.94452-7.144-10.49011-7.18762-16.38983-6.32794-1.90326.27735-1.09405,3.16846.79755,2.89282,3.976-.57934,10.218-1.04754,12.35455,3.29511a5.70534,5.70534,0,0,1-.91339,6.28467,5.55391,5.55391,0,0,1-3.37634,1.60522,8.92264,8.92264,0,0,0-3.928-.73273c-1.39008.06562-2.16474,2.08728-.75708,2.79517a9.01185,9.01185,0,0,0,4.0097.94544,6.50006,6.50006,0,0,1,3.66669,6.19793,6.72272,6.72272,0,0,1-7.69171,5.63288c-1.88513-.37922-2.69177,2.51184-.79755,2.89282a9.74993,9.74993,0,0,0,11.45545-8.19031A9.11121,9.11121,0,0,0,593.3538,335.507Z" transform="translate(-382.87122 -69.40728)" fill="#f2f2f2"/><polygon points="272.105 705.445 255.138 705.444 247.067 640 272.108 640.002 272.105 705.445" fill="#ffb6b6"/><path d="M655.57311,792.55223l-52.175-.002v-.65976a20.30911,20.30911,0,0,1,20.308-20.30767h.00126l9.53041-7.23023,17.78167,7.23138,4.55456.00011Z" transform="translate(-382.87122 -69.40728)" fill="#2f2e41"/><polygon points="350.105 741.445 333.138 741.444 325.067 676 350.108 676.002 350.105 741.445" fill="#ffb6b6"/><path d="M733.57311,828.55223l-52.175-.002v-.65976a20.30911,20.30911,0,0,1,20.308-20.30767h.00126l9.53041-7.23023,17.78167,7.23138,4.55456.00011Z" transform="translate(-382.87122 -69.40728)" fill="#2f2e41"/><path d="M524.22665,287.49041a12.06788,12.06788,0,0,0,18.3735-.45414l57.8516,16.46737,8.48906-14.88182-68.85423-19.05617a12.051,12.051,0,0,0-15.85993,17.92476Z" transform="translate(-382.87122 -69.40728)" fill="#ffb6b6"/><path d="M674.667,425.22617,613.79472,564.40728l-7,22L627.95845,740.8235l34.16023-1.667-.07675-19.80249s-8.12947-4.40859-.02636-6.803,7.76175-8.47335-.06757-17.43391-.367-94.70974-.367-94.70974,32.23738-30.87035,28.72557-38.93518,3.00751-8.06482,3.00751-8.06482,6.95034-1.243,7.21552-4.62149,5.41632-10.17129,5.41632-10.17129l-1.80454,237.823h29.47434s13.47536-22.39246,10.82721-27.21136-6.35185-5.29133,0-11.05511,15.67428-1.04725,11.51306-11.90552-3.0921-128.03414-3.0921-128.03414,16.39632-67.99739,6.26624-72.6144-5.09378-3.96532.88807-10.29116-4.1633-5.74782.90928-10.53683,5.27711-61.15214,5.27711-61.15214Z" transform="translate(-382.87122 -69.40728)" fill="#2f2e41"/><path d="M770.79472,464.40728c-42.67-.1-79.28,9.49-121.95,9.39,2.78-19.23959,12.49543-49.39649,15.274-68.64082,3.908-27.06713.87769-43.223,4.776-70.28923.39-2.65.77-5.29,1.15-7.94,1.54-10.7-2.15-21.4,4.47-32.7,2.82-4.82,7.51-9.74,15.28-14.82,16.14,1.64,15.86-5.64,32-4l5.34,10.64c.68,4.04,3.13,6.67,6.45,8.66,6.83,4.13,17.35,5.57,23.67,11.16,7.94,7.02,7.41,18.25,5.05,29.21-.84,3.9-1.91,7.76-2.92,11.39-8.12916,29.24663,2.26154,51.55937,10.73394,78.6892.8034,2.5726-6.8055,12.52114-6,15,1.36739,4.20048,6.26221,9.42571,5.48287,12.26448C768.63684,455.93487,767.675,459.241,770.79472,464.40728Z" transform="translate(-382.87122 -69.40728)" fill="#344e41"/><path d="M762.30473,335.07726l-93.41-.21-3-.01-110.776-40.70082,14.176.48079,6.58-15.17,3.17-7.29,65.29,21.82,30.18.23,56.9.42c.73.01,1.45.03,2.17.06,6.83,4.13,17.35,5.57,23.67,11.16C765.19474,312.88726,764.66471,324.11724,762.30473,335.07726Z" transform="translate(-382.87122 -69.40728)" fill="#344e41"/><circle cx="315.61568" cy="172.74238" r="30.35523" fill="#ffb6b6"/><path d="M694.173,268.241l2.47263,7.90626c5.48266-2.70663,21.039-6.46224,25.60427-10.52964s8.09625-9.68028,8.3124-15.79083c.11163-3.15584-.65256-6.33936-.12819-9.45334.59251-3.51869,2.76431-6.56908,3.75846-9.996a15.94482,15.94482,0,0,0-8.60175-18.40534c-5.03174-2.21135-10.78558-1.59063-16.25576-2.12507s-11.57219-3.009-13.11186-8.28516c-.57566-1.97269-.5097-4.29862-2.27191-5.59026a4.312,4.312,0,0,0-5.70961.8255q-.12173.13819-.234.2791c-4.63049,5.80881-13.35744,6.24006-17.92443.38119q-.44768-.57431-.86068-1.17517a9.9482,9.9482,0,0,0-.39383,14.13311,7.67218,7.67218,0,0,1-7.46479-5.88707c-2.09487,2.8934-4.24492,5.91084-4.91847,9.41892s.57662,7.6572,3.79382,9.20959a12.32668,12.32668,0,0,0,5.16762.84612c-8.29938,9.81679-3.31988,9.53436,13.48737.25625,8.33789.15842,5.04489,7.90607,5.153,16.24475v0c3.92391-.377,7.96533-.74569,11.67583.90684a8.96128,8.96128,0,0,1,4.16462,3.57852c2.45222,4.21228.01936,8.59024-2.13688,12.42155-1.84317,3.275-3.59054,7.219-2.061,10.65171" transform="translate(-382.87122 -69.40728)" fill="#2f2e41"/><path d="M638.92558,522.71468a12.06788,12.06788,0,0,0,3.65622-18.01176L671.54023,451.983l-12.613-11.59509-33.93654,62.86774a12.051,12.051,0,0,0,13.93485,19.45905Z" transform="translate(-382.87122 -69.40728)" fill="#ffb6b6"/><path d="M709.55472,276.17728l-6.75,120.92-32.52,75.99-21.166,28.06919,2.406-12.71919-14.59-7.3-1.37-.68,19.42-49.19,5.86-14.84,2.73-44.67,2.58-42.24a52.634,52.634,0,0,1,19.34-37.63l16.2-13.16Z" transform="translate(-382.87122 -69.40728)" fill="#344e41"/><path d="M482.23115,276.36481c-5.15378-21.64585-4.29431-42.9657,4.53083-63.85372a4.89248,4.89248,0,0,1,5.22058-4.52878l48.22373,3.42178a4.89246,4.89246,0,0,1,4.52876,5.22057l-4.53083,63.85372a4.89246,4.89246,0,0,1-5.22055,4.52879l-48.22373-3.42178A4.89247,4.89247,0,0,1,482.23115,276.36481Z" transform="translate(-382.87122 -69.40728)" fill="#f2f2f2"/><path d="M487.29871,257.34079c-4.12451-10.66663-1.48736-25.33682,2.91283-41.051a4.58186,4.58186,0,0,1,4.88923-4.24135l41.44423,2.94074a4.582,4.582,0,0,1,4.24158,4.88924l-4.03183,56.82112a4.582,4.582,0,0,1-4.88945,4.24133l-25.67384-1.82173A20.40973,20.40973,0,0,1,487.29871,257.34079Z" transform="translate(-382.87122 -69.40728)" fill="#fff"/><path d="M512.78483,228.74657c-4.24841-1.4743-8.97253,1.8855-9.45471,6.24152-.54645,4.93731,4.7644,8.835,9.36218,7.49316,1.84955-.53979,1.06256-3.43573-.79748-2.89288-3.37018.98358-6.96515-2.6554-5.02753-5.90888a4.43139,4.43139,0,0,1,4.52661-2.21478,5.0178,5.0178,0,0,1,3.344,3.03461c1.65351,3.72638-.31152,7.50952-2.91619,10.218-1.48548,1.54467-3.2284,2.74511-4.82947,4.15313a6.98286,6.98286,0,0,0-2.746,4.954,5.99737,5.99737,0,0,0,3.41217,5.18237c2.55767,1.31537,5.467.89716,8.18786.45936,1.90106-.30591,1.09424-3.19727-.79754-2.89283-2.3797.38288-5.94263.96308-7.45057-1.51831-1.29138-2.12494,1.36914-3.99078,2.81879-5.12121,3.64331-2.84095,7.32764-6.50965,7.8747-11.34C518.73979,234.63677,516.72874,230.11528,512.78483,228.74657Z" transform="translate(-382.87122 -69.40728)" fill="#344e41"/><path d="M762.8699,813.25977a2.26935,2.26935,0,0,0,1.64469-3.93333l-.1555-.61819q.0307-.07427.06178-.14839a6.09417,6.09417,0,0,1,11.24139.04176c1.83858,4.42818,4.17942,8.86389,4.75579,13.54595a18.02864,18.02864,0,0,1-.31648,6.20046,72.28145,72.28145,0,0,0,6.57515-30.02076,69.76381,69.76381,0,0,0-.43275-7.783q-.35848-3.17781-.9947-6.31034a73.11893,73.11893,0,0,0-14.50012-30.98962,19.459,19.459,0,0,1-8.09295-8.39652,14.84331,14.84331,0,0,1-1.34991-4.05617c.394.05167,1.48556-5.94866,1.1884-6.3168.54906-.83317,1.53178-1.24733,2.13144-2.06034,2.98232-4.04341,7.0912-3.33741,9.2362,2.15726,4.58224,2.31266,4.6266,6.14806,1.81495,9.83683-1.78877,2.34682-2.03455,5.52233-3.60408,8.03479.16151.2067.32944.407.4909.61366a73.59073,73.59073,0,0,1,7.681,12.16859,30.59257,30.59257,0,0,1,1.82641-14.20959c1.74819-4.21731,5.02491-7.76915,7.91045-11.415a6.27922,6.27922,0,0,1,11.184,3.08332q.00886.08062.01731.1612-.6429.36267-1.25864.76992a3.0782,3.0782,0,0,0,1.24107,5.60174l.06277.00967a30.628,30.628,0,0,1-.80734,4.57938c3.70179,14.31579-4.29012,19.5299-15.70148,19.76412-.25191.12917-.49738.25833-.74929.38109a75.114,75.114,0,0,1,4.04327,19.02779,71.24345,71.24345,0,0,1-.05168,11.50323l.01939-.13563a18.82564,18.82564,0,0,1,6.4266-10.87027c4.94561-4.06264,11.93282-5.55869,17.26826-8.82426a3.533,3.533,0,0,1,5.41121,3.43709l-.02182.1426a20.67548,20.67548,0,0,0-2.31871,1.11734q-.6429.36275-1.25864.76991a3.07824,3.07824,0,0,0,1.24108,5.6018l.06282.00965c.04519.00646.084.013.12911.01944a30.65462,30.65462,0,0,1-5.63854,8.82922c-2.31464,12.49712-12.256,13.68282-22.89023,10.04354h-.00648a75.09206,75.09206,0,0,1-5.0444,14.7262H763.32146c-.06463-.20021-.12273-.40692-.18089-.60717a20.47474,20.47474,0,0,0,4.98629-.297c-1.337-1.64059-2.674-3.2941-4.011-4.93462a1.11912,1.11912,0,0,1-.084-.0969c-.67817-.8396-1.36282-1.67283-2.041-2.51245l-.00037-.001a29.99044,29.99044,0,0,1,.87876-7.63984Z" transform="translate(-382.87122 -69.40728)" fill="#f2f2f2"/><path d="M561.31855,829.40272a1.18646,1.18646,0,0,0,1.19006,1.19h253.29a1.19,1.19,0,1,0,0-2.38h-253.29A1.18651,1.18651,0,0,0,561.31855,829.40272Z" transform="translate(-382.87122 -69.40728)" fill="#ccc"/><path d="M433.80718,171.94012c-1.25146,18.49339-.65024,39.48221,13.70529,53.20138a32.86133,32.86133,0,0,0,11.78253,7.30243c1.82437.64311,2.60907-2.25425.79752-2.89283-7.37453-2.59959-13.17629-8.31245-17.04186-14.99167-4.53158-7.83-6.2606-16.86281-6.63914-25.816a153.14075,153.14075,0,0,1,.39566-16.80334c.13042-1.92716-2.87013-1.91911-3,0Z" transform="translate(-382.87122 -69.40728)" fill="#3f3d56"/><path d="M456.16937,214.25965c3.55835,1.65308,7.288,3.33513,10.10278,6.14585,2.56779,2.56406,4.36066,6.304,3.32031,9.95874-1.70684,5.996-9.30837,8.25675-14.60828,9.68668a1.50128,1.50128,0,0,0,.79752,2.89284c5.33141-1.43843,11.30948-3.44656,14.792-8.01084,4.12085-5.40083,2.16456-12.51974-2.46451-16.92522-2.98218-2.83815-6.73353-4.62322-10.42569-6.33846-1.73985-.80826-3.26531,1.7769-1.51416,2.59041Z" transform="translate(-382.87122 -69.40728)" fill="#3f3d56"/>
    </symbol>

    <symbol id="step-3" viewBox="0 0 423.94381 590.15034">
      <circle cx="65.78022" cy="65.78022" r="65.78022" fill="#ff6584"/><path d="M257.26324,147.77596l2.73657-11.94423c-.46758-1.24197,.03261-2.66622,1.23391-3.31105,2.11691-3.51364,5.2536-5.15692,9.35895-5.02374,1.09729-.58899,2.41374-.32998,3.22673,.53782,1.94629-2.56897,4.70068-3.94263,8.10645-4.35144-.27393-1.1571,.23781-2.39747,1.33504-2.98645,2.15851-3.28357,5.46533-4.68204,9.35901-5.02374,1.30847-.70236,2.93856-.21106,3.64094,1.09745l.52578,.9795,9.47663,4.0259-.82095,1.41658-7.87479-3.93442c1.7512,3.80945,.26578,8.371-3.47873,10.38099-3.89289,2.08964-8.74269,.62782-10.83233-3.26507l-.94591-1.76217-7.92979,4.25658,.94591,1.76217c2.08964,3.89289,.62782,8.74269-3.26507,10.83233-3.89289,2.08964-8.74269,.62782-10.83233-3.26507l-.41707-.77697-1.27873,10.41476-2.27023-.05971Z" fill="#3f3d56"/><path d="M222.39246,572.81739c-2.06592,.12937-3.20768-2.43737-1.64468-3.93333l.1555-.61819c-.02047-.04951-.04105-.09897-.06178-.14839-2.08924-4.9818-9.16992-4.94742-11.24139,.04177-1.83859,4.42817-4.17942,8.86389-4.75579,13.54594-.25838,2.0668-.14213,4.17236,.31648,6.20047-4.30807-9.41059-6.57515-19.68661-6.57515-30.02077,0-2.59652,.14213-5.19301,.43275-7.78295,.239-2.11854,.56839-4.2241,.99471-6.31034,2.30575-11.2772,7.29852-22.01825,14.50012-30.98962,3.46197-1.89248,6.34906-4.85065,8.09295-8.39652,.62649-1.27891,1.11739-2.65462,1.34991-4.05618-.39398,.05168-1.48556-5.94866-1.18841-6.3168-.54906-.83317-1.53178-1.24733-2.13144-2.06034-2.98232-4.04341-7.0912-3.33741-9.23621,2.15727-4.58224,2.31266-4.62659,6.14806-1.81495,9.83683,1.78878,2.34682,2.03456,5.52233,3.60408,8.03478-.16151,.20671-.32944,.40695-.4909,.61366-2.96106,3.79788-5.52208,7.88002-7.68104,12.16859,.61017-4.76621-.29067-10.50822-1.82641-14.20959-1.74819-4.21732-5.02491-7.76915-7.91045-11.41501-3.46601-4.37924-10.57337-2.46806-11.18401,3.08332-.00591,.05375-.01166,.10745-.01731,.1612,.4286,.24178,.84849,.49867,1.25864,.76992,2.33949,1.54723,1.53096,5.17386-1.24107,5.60174l-.06277,.00967c.15503,1.54366,.41984,3.07444,.80734,4.57937-3.70179,14.31579,4.29011,19.5299,15.70147,19.76412,.25191,.12916,.49738,.25832,.74929,.38109-1.15617,3.25525-2.07982,6.59447-2.76441,9.97891-.61359,2.99043-1.03991,6.01317-1.27885,9.04888-.29715,3.83006-.27129,7.67959,.05168,11.50323l-.01939-.13562c-.82024-4.21115-3.10671-8.14462-6.4266-10.87028-4.94561-4.06264-11.93282-5.55869-17.26826-8.82425-2.56833-1.57196-5.85945,.45945-5.41121,3.43708l.02182,.14261c.79443,.32289,1.56947,.69755,2.31871,1.11733,.4286,.24184,.84848,.49867,1.25864,.76992,2.33949,1.54729,1.53096,5.17392-1.24107,5.6018l-.06282,.00965c-.0452,.00646-.08397,.01295-.12911,.01944,1.36282,3.23581,3.26168,6.23922,5.63854,8.82922,2.31463,12.49713,12.25603,13.68282,22.89022,10.04354h.00648c1.16259,5.06378,2.86128,10.01127,5.0444,14.72621h18.02019c.06463-.20022,.12274-.40692,.18089-.60717-1.6664,.10341-3.34571,.00649-4.98629-.29702,1.33701-1.64059,2.67396-3.29409,4.01097-4.93462,.03229-.0323,.05816-.0646,.08397-.09689,.67817-.8396,1.36282-1.67283,2.04099-2.51246l.00036-.00102c.04245-2.57755-.26652-5.14662-.87876-7.63984l-.00057-.00035Z" fill="#f2f2f2"/><path d="M293.41397,162.52941l10.90482,13.08578-5.8159-42.16529-2.15664,1.07832c-2.24862,1.12431-3.6847,3.40657-3.72524,5.92028l.79297,22.08091Z" fill="#2f2e41"/><g><polygon points="271.46646 517.55223 278.4743 530.90703 278.48701 530.94272 280.81383 535.38752 284.56054 542.52079 284.56372 542.52971 286.13677 545.5354 288.48201 550.00368 294.40981 547.75122 296.17669 547.07148 297.10638 546.72029 295.53736 542.59816 291.38944 531.66 284.18929 512.71824 284.1091 512.74681 282.33903 513.41763 275.27081 516.10641 273.50074 516.77723 271.46646 517.55223" fill="#ffb6b6"/><path d="M274.88954,571.1194c.81878,2.12912,3.19919,3.19975,5.32269,2.39309l2.8302-1.07866,1.77006-.67081,7.0714-2.67986,1.77898-.67399,3.69739-1.40771,.62695-7.2349,1.51109,2.46518,.00318,.00892,1.96307,3.19832,1.03661-.38941,5.43182-2.06583-10.09081-21.10613-2.30482,.72055-.8417,.25964-1.80817,.56385-6.74179,2.11057-.00892,.00318-.4699,.14729-1.80821,.56374-.7494,.23681,2.35031,6.17423-4.87433,7.07058-1.33125,1.93077-3.90065,5.65885c-.76721,1.11721-.9447,2.53652-.4638,3.80172Z" fill="#2f2e41"/></g><g><polygon points="343.67572 532.85007 345.79535 547.78217 345.79535 547.82006 346.49557 552.78796 347.63111 560.76492 347.63111 560.77439 348.10424 564.13368 348.81394 569.12988 355.15387 568.99739 357.04641 568.95003 358.04003 568.9312 357.94537 564.52157 357.7088 552.82573 357.28297 532.56614 357.19784 532.56614 355.30531 532.60403 347.74465 532.76482 345.85212 532.80271 343.67572 532.85007" fill="#ffb6b6"/><path d="M328.92341,584.45946c.05677,2.28042,1.93983,4.08782,4.2109,4.04057l3.02806-.0663,1.89253-.03789,7.56066-.15132,1.902-.03789,3.95539-.08525,3.01859-6.60492,.59615,2.82933v.00947l.77589,3.67163,1.10717-.01894,5.81009-.12313-2.4225-23.26853-2.41297-.09472-.88002-.03789-1.89253-.07566-7.05911-.27434h-.00947l-.49208-.01894-1.89253-.07578-.78542-.02842,.14196,6.60492-6.9645,5.02473-1.902,1.37204-5.57352,4.02163c-1.09764,.79495-1.74115,2.07238-1.71274,3.42559Z" fill="#2f2e41"/></g><path d="M365.72158,336.51249l-6.75234-39.96117,14.49168-5.83077,3.02861,44.1866c1.3571,.82882,2.4993,2.04395,3.23274,3.58742,2.0091,4.22771,.21054,9.28365-4.01724,11.29272-4.22771,2.0091-9.28359,.21052-11.2927-4.01719-1.50333-3.16357-.87384-6.79017,1.30925-9.25761Z" fill="#ffb6b6"/><path d="M253.91951,159.01855l-26.30635,30.82961-13.77344-7.3688,31.93662-30.68681c-.23565-1.57261-.03714-3.22845,.67553-4.78161,1.95196-4.25439,6.98323-6.12086,11.23765-4.16882,4.25439,1.95196,6.12081,6.9832,4.16884,11.23759-1.46069,3.18348-4.64553,5.02883-7.93886,4.93883Z" fill="#ffb6b6"/><circle cx="312.00603" cy="152.90929" r="21.78119" fill="#ffb6b6"/><path d="M281.9719,291.07517l58.69626-6.41183,2.18096,10.17783v2.43856l1.25251,1.45468,.45881,1.82603,1.19664,.09663s-.69614,1.23353-.19664,1.90337c.38509,.51641,1.87873,.33861,2.48685,1.22534,6.16426,8.98836,22.13531,36.38012,14.4305,69.57006l1.09048,54.88757-1.00784,4.31703,1.16605,2.80243,.83395,4.19757,1.1888,86.82631,2.90795,10.17783-4.36193,13.08578-26.17156,1.45398-4.36193-16.72072,2.18096-21.08264-6.54289-61.79395-1.83942-2.94658,1.05575-3.00009,.94425-3.99991-2.01619-4.13423-7.14778-54.23904h0c-1.86245-4.35186-2.63338-9.09286-2.24573-13.8106l.1635-1.98981-1.27317-9.66115-35.2589,57.42917-11.77089,20.38497,1.22957,8.6974,7.77043,49.3026,11,12,2,16-16,10-18-6v-12l-27.45083-74.9793,31.22956-92.46664,5.08891-4.36193-.72699-5.8159,4.8027-4.8027,9.60581-21.55283,4.41146-9.48527-3-9Z" fill="#2f2e41"/><path d="M301.77432,175.97868h23.13481l5.21771,15.99373,32.71445,15.26674-7.26988,34.16842-8.72385,29.8065-2.57022,2.57022,1.11624,4.69966h-5.64703l.92161,6.1794,6.1794,9.08735-66.49004-1.42345v-14.83074l5.20291-20.93606v-.00002c-6.56825-14.45013-2.90449-23.1529-2-38.99998l-5.77671-21.95309,18.17469-1.7774,5.8159-17.85127Z" fill="#344e41"/><path d="M286.70688,217.82091l5.08891-12.35879s-.72699-8.72385-15.99373-10.90482c-15.26674-2.18096-44.25106-4.36193-44.25106-4.36193l7.00944-7.63494,3-8-14-7-8.02688,3.94515-2.97312,5.05485,1,2-4.34154,2.63427c-5.40467,8.59835-3.09409,19.92656,5.24631,25.72137h.00001l3.24282,3.24283,4.75404,2.57308,5.8159-.72699,54.42889,5.8159Z" fill="#344e41"/><path d="M345.75708,210.1471l12.35879-5.08891s8.72385,.72699,10.90482,15.99373c2.18096,15.26674,4.36193,55.25106,4.36193,55.25106l3.63494,7.99686v2.23534l3.2142,6.852-1.93196,1.93196,5.26064,4.24744-23.99059,8.72385-5.16222-13.19407,2.25427-5.70761-3.24282-3.24282-2.57308-4.75404,.72699-5.8159-5.8159-65.42889Z" fill="#344e41"/><path d="M353.39313,197.55599h-5.95996c-1.98975-2.70007-2.33984-4.47998-2.16992-7.78003-.28027,2.22998-5.02002-4.59009-4.75-2.01001,.06006,.56006,2.9502,10.25,3.0498,10.79004-2.76953,2.53003-5.97998,3.85999-9.5,4.31995,1.12012-3.39001-.01953-5.21997-3.46973-4.92004,.17969,1.71997-.0498,3.47998-.62012,5.11011-10.41992-.3501-23-6.42004-35.42969-11.18005-.4502-3.13,.09961-6.41003,1.62988-9.18005-1.28027,2.14014-2.53027,4.29004-3.43018,6.61011-.19971,.52002-.37988,1.04993-.54004,1.57996-.10986,.38-.20996,.76001-.2998,1.13l-5.76025,.31006c4.89014-7.07007,4-16.9801,9.9502-22.31006,9.46973-8.46997,1.47998-20.80005-2.47998-32.29004-.12012-2.97998,1.70996-5.69995,4.52002-6.70996l7.68994-2.76001c9.77979-3.51001,9.29004-5.52002,18.73975,.29004,9.4502-2.90002,26,12.53003,26,24,0,1,.12012,1.96997,.31006,2.8999-1.10986,.14014-2.18994,.5-3.1499,1.08008,1.31006,.73999,2.58984,1.54004,3.82031,2.40991,.95996,5.90015,.88965,11.92004-.48047,17.76001-1.54004,6.57007,1.26025,17.71997,2.33008,20.8501Z" fill="#2f2e41"/><path d="M423.94381,588.96034c0,.66003-.53003,1.19-1.19006,1.19H169.46377c-.65997,0-1.19-.52997-1.19-1.19s.53003-1.19,1.19-1.19h253.28998c.66003,0,1.19006,.53003,1.19006,1.19Z" fill="#ccc"/>
    </symbol>

    <symbol id="arrow-down" viewBox="0 0 120 62">
      <path fill="#a3b18a" d="
        M 108.96 37.02
        Q 110.04 39.25 110.49 36.82
        Q 111.32 32.27 111.78 28.10
        Q 112.27 23.68 115.26 21.42
        A 1.34 1.34 0.0 0 1 117.40 22.33
        Q 119.03 36.14 114.89 49.25
        C 114.00 52.05 111.34 51.97 109.19 50.84
        C 100.63 46.34 91.61 41.22 82.04 38.67
        A 2.05 2.04 -79.5 0 1 80.54 36.47
        C 80.90 33.14 86.93 34.28 88.95 35.04
        Q 95.27 37.41 101.37 39.64
        Q 102.56 40.08 101.84 39.03
        C 99.75 36.02 97.17 33.00 94.28 30.76
        Q 74.83 15.69 50.81 14.10
        Q 46.19 13.80 40.71 15.60
        C 28.62 19.59 17.73 26.71 10.50 37.36
        C 8.87 39.76 7.75 42.61 5.83 44.68
        Q 3.22 47.48 3.14 43.65
        C 3.12 42.66 3.20 41.44 3.54 40.51
        Q 6.60 32.29 10.78 27.26
        Q 22.20 13.47 40.53 8.11
        Q 45.36 6.70 49.43 6.96
        Q 84.60 9.19 107.42 34.65
        C 108.01 35.30 108.58 36.23 108.96 37.02
        Z"
      />
    </symbol>

    <symbol id="arrow-up" viewBox="0 0 120 61">
      <path fill="#a3b18a" d="
        M 101.68 22.29
        Q 102.67 20.88 101.06 21.51
        Q 93.52 24.45 87.58 26.37
        Q 85.16 27.16 82.02 26.58
        A 1.55 1.49 -14.2 0 1 81.16 26.09
        Q 80.77 25.64 80.55 25.07
        A 1.95 1.95 0.0 0 1 81.88 22.48
        C 91.23 20.03 100.28 15.15 108.73 10.40
        C 111.56 8.80 114.22 9.21 115.12 12.36
        Q 118.97 25.73 117.44 38.43
        Q 117.11 41.16 115.00 39.40
        L 114.45 38.95
        A 7.35 7.33 -72.2 0 1 111.84 33.86
        Q 111.39 27.87 110.27 23.48
        Q 109.99 22.38 109.44 23.38
        Q 108.47 25.18 107.14 26.67
        Q 85.96 50.40 52.70 53.93
        Q 47.59 54.48 44.07 53.73
        Q 24.75 49.67 11.31 34.51
        C 8.01 30.79 5.86 26.10 3.93 21.56
        Q 2.87 19.08 3.17 16.36
        A 1.18 1.18 0.0 0 1 5.22 15.71
        C 6.13 16.73 7.07 17.81 7.71 19.02
        C 14.73 32.18 26.30 40.52 40.24 45.32
        Q 46.54 47.49 53.29 46.79
        Q 75.10 44.53 92.62 31.59
        Q 97.96 27.65 101.68 22.29
        Z"
      />
    </symbol>
  </defs>
</svg>