<?xml version="1.0" encoding="utf-8"?>
<svg xmlns="http://www.w3.org/2000/svg">
  <defs>
    <symbol id="statistic-1" viewBox="0 0 24 24">
      <path d="M9 11C9.79113 11 10.5645 10.7654 11.2223 10.3259C11.8801 9.88635 12.3928 9.26164 12.6955 8.53074C12.9983 7.79983 13.0775 6.99556 12.9231 6.21964C12.7688 5.44372 12.3878 4.73098 11.8284 4.17157C11.269 3.61216 10.5563 3.2312 9.78036 3.07686C9.00444 2.92252 8.20017 3.00173 7.46927 3.30448C6.73836 3.60723 6.11365 4.11992 5.67412 4.77772C5.2346 5.43552 5 6.20888 5 7C5 8.06087 5.42143 9.07828 6.17157 9.82843C6.92172 10.5786 7.93913 11 9 11ZM9 5C9.39556 5 9.78224 5.1173 10.1111 5.33706C10.44 5.55683 10.6964 5.86918 10.8478 6.23463C10.9991 6.60009 11.0387 7.00222 10.9616 7.39018C10.8844 7.77814 10.6939 8.13451 10.4142 8.41422C10.1345 8.69392 9.77814 8.8844 9.39018 8.96157C9.00222 9.03874 8.60009 8.99914 8.23463 8.84776C7.86918 8.69639 7.55682 8.44004 7.33706 8.11114C7.1173 7.78224 7 7.39556 7 7C7 6.46957 7.21071 5.96086 7.58579 5.58579C7.96086 5.21072 8.46957 5 9 5ZM17 13C17.5933 13 18.1734 12.8241 18.6667 12.4944C19.1601 12.1648 19.5446 11.6962 19.7716 11.1481C19.9987 10.5999 20.0581 9.99667 19.9424 9.41473C19.8266 8.83279 19.5409 8.29824 19.1213 7.87868C18.7018 7.45912 18.1672 7.1734 17.5853 7.05765C17.0033 6.94189 16.4001 7.0013 15.8519 7.22836C15.3038 7.45543 14.8352 7.83994 14.5056 8.33329C14.1759 8.82664 14 9.40666 14 10C14 10.7957 14.3161 11.5587 14.8787 12.1213C15.4413 12.6839 16.2044 13 17 13ZM17 9C17.1978 9 17.3911 9.05865 17.5556 9.16853C17.72 9.27841 17.8482 9.43459 17.9239 9.61732C17.9996 9.80004 18.0194 10.0011 17.9808 10.1951C17.9422 10.3891 17.847 10.5673 17.7071 10.7071C17.5673 10.847 17.3891 10.9422 17.1951 10.9808C17.0011 11.0194 16.8 10.9996 16.6173 10.9239C16.4346 10.8482 16.2784 10.72 16.1685 10.5556C16.0586 10.3911 16 10.1978 16 10C16 9.73479 16.1054 9.48043 16.2929 9.2929C16.4804 9.10536 16.7348 9 17 9ZM17 14C15.8918 14.0012 14.8155 14.3706 13.94 15.05C12.9605 14.0744 11.7141 13.4106 10.3578 13.1424C9.00159 12.8743 7.59632 13.0137 6.31923 13.5431C5.04213 14.0726 3.95041 14.9683 3.18174 16.1174C2.41307 17.2665 2.00187 18.6175 2 20C2 20.2652 2.10536 20.5196 2.29289 20.7071C2.48043 20.8946 2.73478 21 3 21C3.26522 21 3.51957 20.8946 3.70711 20.7071C3.89464 20.5196 4 20.2652 4 20C4 18.6739 4.52678 17.4021 5.46447 16.4645C6.40215 15.5268 7.67392 15 9 15C10.3261 15 11.5979 15.5268 12.5355 16.4645C13.4732 17.4021 14 18.6739 14 20C14 20.2652 14.1054 20.5196 14.2929 20.7071C14.4804 20.8946 14.7348 21 15 21C15.2652 21 15.5196 20.8946 15.7071 20.7071C15.8946 20.5196 16 20.2652 16 20C16.0024 18.8284 15.7064 17.6755 15.14 16.65C15.5819 16.3008 16.1132 16.083 16.6731 16.0217C17.233 15.9603 17.7989 16.0578 18.306 16.303C18.813 16.5482 19.2408 16.9312 19.5404 17.4081C19.84 17.8851 19.9993 18.4368 20 19C20 19.2652 20.1054 19.5196 20.2929 19.7071C20.4804 19.8946 20.7348 20 21 20C21.2652 20 21.5196 19.8946 21.7071 19.7071C21.8946 19.5196 22 19.2652 22 19C22 17.6739 21.4732 16.4021 20.5355 15.4645C19.5979 14.5268 18.3261 14 17 14Z" fill="#a3b18a"/>
    </symbol>

    <symbol id="statistic-2" viewBox="0 0 24 24">
      <path d="M17.8098 13.3901C19.5703 11.9441 20.7114 9.87992 20.9998 7.62009C21.0156 7.48877 21.0053 7.35563 20.9697 7.22828C20.934 7.10092 20.8735 6.98184 20.7918 6.87784C20.7101 6.77384 20.6087 6.68695 20.4934 6.62214C20.3781 6.55732 20.2512 6.51585 20.1199 6.50009C19.9885 6.48434 19.8554 6.4946 19.728 6.53029C19.6007 6.56599 19.4816 6.62642 19.3776 6.70813C19.2736 6.78985 19.1867 6.89125 19.1219 7.00655C19.0571 7.12184 19.0156 7.24877 18.9998 7.38009C18.7608 9.06638 17.921 10.6097 16.635 11.7263C15.3489 12.8429 13.703 13.4577 11.9999 13.4577C10.2967 13.4577 8.6508 12.8429 7.36474 11.7263C6.07868 10.6097 5.23892 9.06638 4.99985 7.38009C4.98409 7.24877 4.94262 7.12184 4.87781 7.00655C4.81299 6.89125 4.72611 6.78985 4.6221 6.70813C4.5181 6.62642 4.39902 6.56599 4.27167 6.53029C4.14431 6.4946 4.01117 6.48434 3.87985 6.50009C3.74853 6.51585 3.6216 6.55732 3.5063 6.62214C3.39101 6.68695 3.28961 6.77384 3.20789 6.87784C3.12618 6.98184 3.06574 7.10092 3.03005 7.22828C2.99435 7.35563 2.98409 7.48877 2.99985 7.62009C3.28569 9.87844 4.42317 11.9424 6.17985 13.3901L3.87985 15.7101C3.71602 15.9014 3.63042 16.1475 3.64014 16.3991C3.64986 16.6508 3.75419 16.8896 3.93229 17.0677C4.11038 17.2458 4.34912 17.3501 4.6008 17.3598C4.85247 17.3695 5.09855 17.2839 5.28985 17.1201L7.89985 14.5201C8.86965 15.0102 9.91971 15.3218 10.9999 15.4401V19.0001C10.9999 19.2653 11.1052 19.5197 11.2927 19.7072C11.4803 19.8947 11.7346 20.0001 11.9999 20.0001C12.2651 20.0001 12.5194 19.8947 12.707 19.7072C12.8945 19.5197 12.9999 19.2653 12.9999 19.0001V15.4401C14.08 15.3218 15.13 15.0102 16.0999 14.5201L18.7098 17.1201C18.9012 17.2839 19.1472 17.3695 19.3989 17.3598C19.6506 17.3501 19.8893 17.2458 20.0674 17.0677C20.2455 16.8896 20.3498 16.6508 20.3596 16.3991C20.3693 16.1475 20.2837 15.9014 20.1199 15.7101L17.8098 13.3901Z" fill="#a3b18a"/>
    </symbol>

    <symbol id="statistic-3" viewBox="0 0 24 24">
      <path d="M17.9099 4.99994H5.90994L7.20994 3.70994C7.39824 3.52164 7.50403 3.26624 7.50403 2.99994C7.50403 2.73364 7.39824 2.47824 7.20994 2.28994C7.02164 2.10164 6.76624 1.99585 6.49994 1.99585C6.23364 1.99585 5.97824 2.10164 5.78994 2.28994L2.78994 5.28994C2.69621 5.3829 2.62182 5.49351 2.57105 5.61536C2.52028 5.73722 2.49414 5.86793 2.49414 5.99994C2.49414 6.13195 2.52028 6.26266 2.57105 6.38452C2.62182 6.50638 2.69621 6.61698 2.78994 6.70994L5.78994 9.70994C5.8829 9.80367 5.9935 9.87806 6.11536 9.92883C6.23722 9.9796 6.36793 10.0057 6.49994 10.0057C6.63195 10.0057 6.76266 9.9796 6.88452 9.92883C7.00638 9.87806 7.11698 9.80367 7.20994 9.70994C7.30367 9.61698 7.37806 9.50638 7.42883 9.38452C7.4796 9.26266 7.50574 9.13195 7.50574 8.99994C7.50574 8.86793 7.4796 8.73722 7.42883 8.61536C7.37806 8.49351 7.30367 8.3829 7.20994 8.28994L5.90994 6.99994H17.9099C18.1148 6.99596 18.3185 7.03239 18.5093 7.10713C18.7 7.18187 18.8742 7.29347 19.0219 7.43556C19.1695 7.57764 19.2878 7.74741 19.3698 7.93519C19.4518 8.12297 19.496 8.32507 19.4999 8.52994V10.9999C19.4999 11.2652 19.6053 11.5195 19.7928 11.707C19.9804 11.8946 20.2347 11.9999 20.4999 11.9999C20.7652 11.9999 21.0195 11.8946 21.207 11.707C21.3946 11.5195 21.4999 11.2652 21.4999 10.9999V8.52994C21.496 8.06243 21.4 7.60027 21.2175 7.16985C21.035 6.73943 20.7694 6.34918 20.4361 6.02139C20.1027 5.6936 19.708 5.43468 19.2746 5.25942C18.8412 5.08415 18.3774 4.99599 17.9099 4.99994ZM18.2099 14.2899C18.0216 14.1016 17.7662 13.9958 17.4999 13.9958C17.2336 13.9958 16.9782 14.1016 16.7899 14.2899C16.6016 14.4782 16.4958 14.7336 16.4958 14.9999C16.4958 15.2662 16.6016 15.5216 16.7899 15.7099L18.0899 16.9999H6.08994C5.88507 17.0039 5.68142 16.9675 5.49063 16.8928C5.29983 16.818 5.12564 16.7064 4.97798 16.5643C4.83033 16.4222 4.71212 16.2525 4.63009 16.0647C4.54807 15.8769 4.50384 15.6748 4.49994 15.4699V12.9999C4.49994 12.7347 4.39458 12.4804 4.20705 12.2928C4.01951 12.1053 3.76516 11.9999 3.49994 11.9999C3.23472 11.9999 2.98037 12.1053 2.79283 12.2928C2.6053 12.4804 2.49994 12.7347 2.49994 12.9999V15.4699C2.50386 15.9375 2.59983 16.3996 2.78237 16.83C2.96492 17.2604 3.23045 17.6507 3.56382 17.9785C3.89718 18.3063 4.29185 18.5652 4.72528 18.7405C5.15872 18.9157 5.62243 19.0039 6.08994 18.9999H18.0899L16.7899 20.2899C16.6962 20.3829 16.6218 20.4935 16.571 20.6154C16.5203 20.7372 16.4941 20.8679 16.4941 20.9999C16.4941 21.132 16.5203 21.2627 16.571 21.3845C16.6218 21.5064 16.6962 21.617 16.7899 21.7099C16.8829 21.8037 16.9935 21.8781 17.1154 21.9288C17.2372 21.9796 17.3679 22.0057 17.4999 22.0057C17.632 22.0057 17.7627 21.9796 17.8845 21.9288C18.0064 21.8781 18.117 21.8037 18.2099 21.7099L21.2099 18.7099C21.3037 18.617 21.3781 18.5064 21.4288 18.3845C21.4796 18.2627 21.5057 18.132 21.5057 17.9999C21.5057 17.8679 21.4796 17.7372 21.4288 17.6154C21.3781 17.4935 21.3037 17.3829 21.2099 17.2899L18.2099 14.2899Z" fill="#a3b18a"/>
    </symbol>
  </defs>
</svg>